<svg width="92" height="92" viewBox="0 0 92 92" fill="none" xmlns="http://www.w3.org/2000/svg">
<g filter="url(#filter0_d)">
<circle cx="46" cy="44" r="36" fill="white"/>
</g>
<g filter="url(#filter1_i)">
<g clip-path="url(#clip0)">
<path d="M54.1377 54.3621C54.1377 54.7905 54.4848 55.138 54.9132 55.138H61.1202C61.5486 55.138 61.8961 54.7905 61.8961 54.3621V40.579C59.6322 42.4048 56.4015 42.4048 54.1377 40.579V44.2759H57.241C58.0979 44.2759 58.7928 44.9705 58.7928 45.8277V51.2588C58.7928 52.1157 58.0979 52.8102 57.241 52.8102H54.1377V54.3621Z" fill="white"/>
<path d="M54.1377 45.8277H57.241V51.2587H54.1377V45.8277Z" fill="white"/>
<path d="M43.1493 26.255C44.1755 26.68 45.3589 26.3213 45.9762 25.3981C46.5935 24.4745 46.4723 23.2437 45.6871 22.4582C44.9019 21.673 43.6711 21.5515 42.7476 22.1684C41.824 22.7854 41.4649 23.9688 41.8896 24.995C42.1262 25.5653 42.579 26.0184 43.1493 26.255Z" fill="white"/>
<path d="M51.8099 23.3277H47.8394C47.9451 23.8393 47.9451 24.3676 47.8394 24.8792H51.8099C52.2384 24.8792 52.5858 24.5321 52.5858 24.1033C52.5858 23.6748 52.2384 23.3277 51.8099 23.3277Z" fill="white"/>
<path d="M58.7928 35.7413C58.7928 36.1697 58.4453 36.5172 58.0168 36.5172C57.5884 36.5172 57.2409 36.1697 57.2409 35.7413C57.2409 35.3128 57.5884 34.9657 58.0168 34.9657C58.4453 34.9657 58.7928 35.3128 58.7928 35.7413Z" fill="white"/>
<path d="M58.0169 40.3967C60.5877 40.3967 62.672 38.3124 62.672 35.7413C62.672 33.1705 60.5877 31.0861 58.0169 31.0861C55.4457 31.0861 53.3618 33.1705 53.3618 35.7413C53.3645 38.311 55.4471 40.3936 58.0169 40.3967ZM58.0169 33.4139C59.3023 33.4139 60.3446 34.4559 60.3446 35.7413C60.3446 37.027 59.3023 38.069 58.0169 38.069C56.7315 38.069 55.6891 37.027 55.6891 35.7413C55.6905 34.4565 56.7318 33.4152 58.0169 33.4139Z" fill="white"/>
<path d="M63.236 27.2278L60.4376 30.0262C61.9194 30.6583 63.0997 31.8386 63.7318 33.3208L66.5306 30.522C67.4339 29.6112 67.4308 28.1414 66.5237 27.2343C65.6166 26.3273 64.1469 26.3242 63.236 27.2275V27.2278ZM65.7756 28.7587C65.7756 29.1872 65.4282 29.5343 64.9997 29.5343C64.5712 29.5343 64.2238 29.1872 64.2238 28.7587C64.2238 28.3302 64.5712 27.9828 64.9997 27.9828C65.4282 27.9828 65.7756 28.3302 65.7756 28.7587Z" fill="white"/>
<path d="M26.5369 56.4014L24.6748 61.0568C24.5793 61.2958 24.6085 61.5667 24.7527 61.7799C24.8969 61.9931 25.1376 62.1208 25.395 62.1208H32.5997L33.1459 60.1535C33.3327 59.482 33.9441 59.0172 34.6414 59.0172H39.4963C40.1933 59.0172 40.8047 59.482 40.9915 60.1539L41.5374 62.1208H48.742C48.9995 62.1208 49.2402 61.9931 49.3847 61.7799C49.5289 61.5667 49.5581 61.2958 49.4627 61.0568L47.6005 56.4014C47.4827 56.1068 47.1974 55.9139 46.8798 55.9139H27.2572C26.94 55.9139 26.6547 56.1068 26.5369 56.4014Z" fill="white"/>
<path d="M34.6411 60.5689L34.2095 62.1207H39.9275L39.4963 60.5689H34.6411Z" fill="white"/>
<path d="M23.8789 64.4482V65.2241C23.8789 65.6526 24.2263 66 24.6548 66H49.4822C49.911 66 50.2581 65.6526 50.2581 65.2241V64.4482C50.2581 64.0197 49.911 63.6723 49.4822 63.6723H24.6548C24.2263 63.6723 23.8789 64.0197 23.8789 64.4482Z" fill="white"/>
<path d="M64.9997 21H54.1377C53.7092 21 53.3618 21.3474 53.3618 21.7759V25.6551C53.3618 26.0836 53.7092 26.431 54.1377 26.431H61.8387L62.1391 26.1306C63.0919 25.1824 64.4686 24.7965 65.7756 25.1113V21.7759C65.7756 21.3474 65.4282 21 64.9997 21Z" fill="white"/>
<path d="M26.9822 40.3967V53.5861C26.9822 54.0146 27.3296 54.362 27.7581 54.362H46.3789C46.8074 54.362 47.1548 54.0146 47.1548 53.5861V40.3967C47.1548 39.9679 46.8074 39.6208 46.3789 39.6208H27.7581C27.3296 39.6208 26.9822 39.9679 26.9822 40.3967ZM28.7613 43.7273L31.089 41.3999C31.3935 41.1057 31.8773 41.1098 32.1767 41.4091C32.476 41.7085 32.4801 42.1923 32.1859 42.4968L29.8585 44.8245C29.554 45.1184 29.0703 45.1143 28.7709 44.8149C28.4715 44.5155 28.4674 44.0318 28.7613 43.7273ZM28.7613 47.6065L35.7441 40.624C36.0486 40.3297 36.5324 40.3342 36.8318 40.6332C37.1311 40.9326 37.1353 41.4164 36.8414 41.7209L29.8585 48.7037C29.554 48.9976 29.0703 48.9935 28.7709 48.6941C28.4715 48.3951 28.4674 47.911 28.7613 47.6065Z" fill="white"/>
<path d="M41.3698 30.5568L41.3708 30.5574L42.3823 30.1365L43.3044 27.9128C42.7908 27.8143 42.3026 27.6124 41.8693 27.3196L40.951 29.5436L41.3698 30.5568Z" fill="white"/>
<path d="M50.3402 59.072L50.9389 60.5689H65.9892C66.2659 60.5689 66.5213 60.4216 66.6604 60.1823C66.7991 59.9434 66.8001 59.6481 66.6628 59.4081L65.1096 56.6897C65.09 56.6897 65.0739 56.6797 65.0546 56.6784C65.0354 56.6797 65.0189 56.6897 64.9997 56.6897H51.7015L50.3402 59.072Z" fill="white"/>
</g>
</g>
<defs>
<filter id="filter0_d" x="0" y="0" width="92" height="92" filterUnits="userSpaceOnUse" color-interpolation-filters="sRGB">
<feFlood flood-opacity="0" result="BackgroundImageFix"/>
<feColorMatrix in="SourceAlpha" type="matrix" values="0 0 0 0 0 0 0 0 0 0 0 0 0 0 0 0 0 0 127 0"/>
<feOffset dy="2"/>
<feGaussianBlur stdDeviation="5"/>
<feColorMatrix type="matrix" values="0 0 0 0 0 0 0 0 0 0 0 0 0 0 0 0 0 0 0.3 0"/>
<feBlend mode="normal" in2="BackgroundImageFix" result="effect1_dropShadow"/>
<feBlend mode="normal" in="SourceGraphic" in2="effect1_dropShadow" result="shape"/>
</filter>
<filter id="filter1_i" x="23" y="21" width="45" height="47" filterUnits="userSpaceOnUse" color-interpolation-filters="sRGB">
<feFlood flood-opacity="0" result="BackgroundImageFix"/>
<feBlend mode="normal" in="SourceGraphic" in2="BackgroundImageFix" result="shape"/>
<feColorMatrix in="SourceAlpha" type="matrix" values="0 0 0 0 0 0 0 0 0 0 0 0 0 0 0 0 0 0 127 0" result="hardAlpha"/>
<feOffset dy="2"/>
<feGaussianBlur stdDeviation="2.5"/>
<feComposite in2="hardAlpha" operator="arithmetic" k2="-1" k3="1"/>
<feColorMatrix type="matrix" values="0 0 0 0 0 0 0 0 0 0 0 0 0 0 0 0 0 0 0.3 0"/>
<feBlend mode="normal" in2="shape" result="effect1_innerShadow"/>
</filter>
<clipPath id="clip0">
<rect x="23" y="21" width="45" height="45" fill="white"/>
</clipPath>
</defs>
</svg>
