<svg width="92" height="92" viewBox="0 0 92 92" fill="none" xmlns="http://www.w3.org/2000/svg">
<g filter="url(#filter0_d)">
<circle cx="46" cy="44" r="36" fill="white"/>
</g>
<g filter="url(#filter1_i)">
<g clip-path="url(#clip0)">
<path d="M57.5193 45.0126H62.4408V56.7969H57.5193V45.0126Z" fill="white"/>
<path d="M48.1992 45.0126H53.121V56.7969H48.1992V45.0126Z" fill="white"/>
<path d="M38.879 45.0126H43.8008V56.7969H38.879V45.0126Z" fill="white"/>
<path d="M29.5591 45.0126H34.4807V56.7969H29.5591V45.0126Z" fill="white"/>
<path d="M64.0818 41.3212V40.0907H27.9185V41.3212C27.9185 42.0008 28.4693 42.5516 29.149 42.5516H62.8513C63.5307 42.5516 64.0818 42.0008 64.0818 41.3212Z" fill="white"/>
<path d="M65.7689 59.2578H26.2318C25.5521 59.2578 25.0013 59.8086 25.0013 60.4883V63.7695C25.0013 64.4492 25.5521 65 26.2318 65H65.7689C66.4485 65 66.9994 64.4492 66.9994 63.7695V60.4883C66.9994 59.8086 66.4485 59.2578 65.7689 59.2578Z" fill="white"/>
<path d="M26.2305 37.6298H65.7696C66.3201 37.6298 66.8036 37.2641 66.9536 36.7345C67.1032 36.2048 66.8834 35.6399 66.4146 35.3515L46.6451 23.1826C46.2497 22.9391 45.7508 22.9391 45.355 23.1826L25.5855 35.3515C25.1167 35.6402 24.8969 36.2048 25.0469 36.7345C25.1968 37.2641 25.6804 37.6298 26.2305 37.6298ZM45.1637 30.2373H46.8367C47.5164 30.2373 48.0672 30.7882 48.0672 31.4678C48.0672 32.1474 47.5164 32.6983 46.8367 32.6983H45.1637C44.4841 32.6983 43.9333 32.1474 43.9333 31.4678C43.9333 30.7882 44.4841 30.2373 45.1637 30.2373Z" fill="white"/>
</g>
</g>
<defs>
<filter id="filter0_d" x="0" y="0" width="92" height="92" filterUnits="userSpaceOnUse" color-interpolation-filters="sRGB">
<feFlood flood-opacity="0" result="BackgroundImageFix"/>
<feColorMatrix in="SourceAlpha" type="matrix" values="0 0 0 0 0 0 0 0 0 0 0 0 0 0 0 0 0 0 127 0"/>
<feOffset dy="2"/>
<feGaussianBlur stdDeviation="5"/>
<feColorMatrix type="matrix" values="0 0 0 0 0 0 0 0 0 0 0 0 0 0 0 0 0 0 0.3 0"/>
<feBlend mode="normal" in2="BackgroundImageFix" result="effect1_dropShadow"/>
<feBlend mode="normal" in="SourceGraphic" in2="effect1_dropShadow" result="shape"/>
</filter>
<filter id="filter1_i" x="25" y="23" width="42" height="44" filterUnits="userSpaceOnUse" color-interpolation-filters="sRGB">
<feFlood flood-opacity="0" result="BackgroundImageFix"/>
<feBlend mode="normal" in="SourceGraphic" in2="BackgroundImageFix" result="shape"/>
<feColorMatrix in="SourceAlpha" type="matrix" values="0 0 0 0 0 0 0 0 0 0 0 0 0 0 0 0 0 0 127 0" result="hardAlpha"/>
<feOffset dy="2"/>
<feGaussianBlur stdDeviation="2.5"/>
<feComposite in2="hardAlpha" operator="arithmetic" k2="-1" k3="1"/>
<feColorMatrix type="matrix" values="0 0 0 0 0 0 0 0 0 0 0 0 0 0 0 0 0 0 0.3 0"/>
<feBlend mode="normal" in2="shape" result="effect1_innerShadow"/>
</filter>
<clipPath id="clip0">
<rect x="25" y="23" width="42" height="42" fill="white"/>
</clipPath>
</defs>
</svg>
