<svg width="92" height="92" viewBox="0 0 92 92" fill="none" xmlns="http://www.w3.org/2000/svg">
<g filter="url(#filter0_d)">
<circle cx="46" cy="44" r="36" fill="white"/>
</g>
<g filter="url(#filter1_i)">
<path d="M31.9959 27.9575C32.4399 28.2074 35.4288 29.6513 36.8727 30.3466C36.8784 30.9071 36.8908 31.8763 36.9098 31.8927C37.069 33.2805 37.3421 34.8224 37.4213 35.2578C37.29 35.3306 36.6152 35.7718 36.6152 37.1443C36.6158 37.152 36.6165 37.1591 36.6171 37.167C36.6161 37.203 36.6152 37.2393 36.6152 37.2766C36.9056 41.0913 38.4228 39.4472 38.7356 41.1182C39.256 43.8964 41.7159 45.9064 43.2472 46.6004C44.1321 47.0013 45.0429 47.2057 46.0001 47.2254C46.9573 47.2058 47.8681 47.0013 48.7531 46.6004C50.2843 45.9064 52.7442 43.8963 53.2646 41.1182C53.5774 39.4471 55.0946 41.0913 55.3851 37.2766C55.3851 37.2392 55.3841 37.203 55.3831 37.167C55.3837 37.1592 55.3844 37.1521 55.3851 37.1443C55.3851 35.7717 54.7101 35.3306 54.5789 35.2578C54.6582 34.8224 54.9313 33.2806 55.0904 31.8927C55.1093 31.8763 55.1218 30.9072 55.1275 30.3466C55.9206 29.9647 57.1793 29.3571 58.2268 28.8455V32.5331C57.9359 32.7048 57.7313 33.008 57.7313 33.3694C57.7313 33.6894 57.8937 33.9605 58.1304 34.1397C58.1304 34.1397 57.7096 36.5051 57.5735 37.2008C57.4375 37.8963 59.9733 37.7568 59.8591 37.2008C59.7451 36.6446 59.3026 34.1397 59.3026 34.1397C59.5394 33.9605 59.7017 33.6894 59.7017 33.3694C59.7017 33.0079 59.498 32.7049 59.2073 32.5331V28.3637C59.5977 28.17 59.8882 28.0227 60.0042 27.9575C60.3185 27.7807 60.4876 27.5545 60.4519 27.3195C60.4949 27.0745 60.3177 26.8111 59.8422 26.5783C56.4487 24.9172 47.7973 20.6834 46.9418 20.2754C46.5686 20.0974 46.2614 20.0187 46.0001 20C45.7388 20.0187 45.4316 20.0974 45.0584 20.2754C44.2029 20.6834 35.5515 24.9173 32.1581 26.5783C31.6825 26.8111 31.5054 27.0745 31.5484 27.3195C31.5125 27.5545 31.6818 27.7807 31.9959 27.9575Z" fill="white"/>
<path d="M57.5176 51.8185C55.921 51.2428 53.1422 49.5833 52.666 49.3273C52.5427 49.2556 52.3997 49.2137 52.2467 49.2137C51.9126 49.2137 51.6251 49.4098 51.4912 49.6935C50.1749 51.8971 47.7345 58.305 46.0317 58.4239C46.0213 58.4231 46.0106 58.4211 46.0001 58.4199C45.9896 58.4211 45.9789 58.4231 45.9685 58.4239C44.2657 58.305 41.8253 51.8971 40.509 49.6935C40.375 49.4098 40.0875 49.2137 39.7535 49.2137C39.6004 49.2137 39.4575 49.2556 39.334 49.3273C38.858 49.5833 36.079 51.2428 34.4826 51.8185C29.1238 53.7507 26.7137 55.7212 26.7137 57.065C26.7137 57.1039 26.7137 57.1484 26.7137 57.1972C26.7137 58.8337 26.7137 65.8676 26.7137 65.8676C26.7137 65.9533 26.7137 65.9999 26.7137 65.9999H65.2865C65.2865 65.9999 65.2865 65.9533 65.2865 65.8676C65.2865 65.8676 65.2865 58.8335 65.2865 57.1972C65.2865 57.1484 65.2865 57.1039 65.2865 57.065C65.2864 55.7212 62.8763 53.7507 57.5176 51.8185Z" fill="white"/>
</g>
<defs>
<filter id="filter0_d" x="0" y="0" width="92" height="92" filterUnits="userSpaceOnUse" color-interpolation-filters="sRGB">
<feFlood flood-opacity="0" result="BackgroundImageFix"/>
<feColorMatrix in="SourceAlpha" type="matrix" values="0 0 0 0 0 0 0 0 0 0 0 0 0 0 0 0 0 0 127 0"/>
<feOffset dy="2"/>
<feGaussianBlur stdDeviation="5"/>
<feColorMatrix type="matrix" values="0 0 0 0 0 0 0 0 0 0 0 0 0 0 0 0 0 0 0.3 0"/>
<feBlend mode="normal" in2="BackgroundImageFix" result="effect1_dropShadow"/>
<feBlend mode="normal" in="SourceGraphic" in2="effect1_dropShadow" result="shape"/>
</filter>
<filter id="filter1_i" x="26.7137" y="20" width="38.5728" height="47.9999" filterUnits="userSpaceOnUse" color-interpolation-filters="sRGB">
<feFlood flood-opacity="0" result="BackgroundImageFix"/>
<feBlend mode="normal" in="SourceGraphic" in2="BackgroundImageFix" result="shape"/>
<feColorMatrix in="SourceAlpha" type="matrix" values="0 0 0 0 0 0 0 0 0 0 0 0 0 0 0 0 0 0 127 0" result="hardAlpha"/>
<feOffset dy="2"/>
<feGaussianBlur stdDeviation="2.5"/>
<feComposite in2="hardAlpha" operator="arithmetic" k2="-1" k3="1"/>
<feColorMatrix type="matrix" values="0 0 0 0 0 0 0 0 0 0 0 0 0 0 0 0 0 0 0.3 0"/>
<feBlend mode="normal" in2="shape" result="effect1_innerShadow"/>
</filter>
</defs>
</svg>
