<svg width="92" height="92" viewBox="0 0 92 92" fill="none" xmlns="http://www.w3.org/2000/svg">
<g filter="url(#filter0_d)">
<circle cx="46" cy="44" r="36" fill="white"/>
</g>
<g filter="url(#filter1_i)">
<path d="M70.6785 33.9542L72.1614 29.9992C72.2302 29.8156 72.2365 29.6144 72.1794 29.4269C72.1222 29.2393 72.0047 29.0759 71.8452 28.9619C71.6856 28.8479 71.4929 28.7898 71.2969 28.7965C71.101 28.8032 70.9127 28.8744 70.7613 28.999L56.4893 40.7535C56.0996 41.0758 55.8092 41.502 55.6518 41.9826C55.4945 42.4633 55.4766 42.9787 55.6003 43.469C55.6804 43.7826 55.7698 44.1293 55.8564 44.4607C55.9212 44.7107 55.9064 44.9746 55.814 45.2157C55.7217 45.4568 55.5565 45.6631 55.3414 45.8058L55.3063 45.8292C55.0782 45.9814 54.8054 46.0521 54.5321 46.0299C54.2587 46.0076 54.0009 45.8938 53.8004 45.7067L51.6797 42.6886L51.1703 40.1412C51.0828 39.7099 51.0817 39.2656 51.1671 38.8339C51.2524 38.4023 51.4226 37.9918 51.6677 37.6263C52.0818 37.0074 52.6894 36.5433 53.3955 36.3066C53.6939 36.2062 54.0093 36.166 54.3233 36.1883C54.6374 36.2106 54.9439 36.295 55.2251 36.4367L57.5699 37.6089C57.7222 37.6851 57.8932 37.7159 58.0625 37.6979C58.2319 37.6798 58.3925 37.6136 58.5253 37.507C58.6582 37.4004 58.7577 37.258 58.812 37.0966C58.8664 36.9352 58.8734 36.7616 58.8321 36.5964L58.2608 34.3106C58.0749 33.5672 57.6656 32.8987 57.088 32.3951L57.7994 28.8555C57.8838 28.429 57.8099 27.9862 57.5915 27.6102C57.3731 27.2341 57.0252 26.9505 56.6129 26.8125L55.4194 26.4117L55.4083 26.408C55.3715 26.3962 55.3338 26.3874 55.297 26.3769V25.2344C55.297 24.9982 55.2031 24.7716 55.0361 24.6046C54.8691 24.4376 54.6426 24.3438 54.4064 24.3438C54.1701 24.3438 53.9436 24.4376 53.7766 24.6046C53.6096 24.7716 53.5157 24.9982 53.5157 25.2344V26.3765C53.4785 26.387 53.4408 26.3958 53.4044 26.4076L53.3933 26.4112L52.2021 26.8114C51.7892 26.9494 51.4408 27.2331 51.2221 27.6095C51.0033 27.9858 50.9293 28.429 51.0139 28.856L51.5869 31.7072C51.1414 31.815 50.7056 31.959 50.2837 32.1378L49.1558 30.4456L50.2681 27.1085C50.4829 26.462 50.443 25.7578 50.1563 25.1398C49.8697 24.5217 49.358 24.0364 48.7257 23.7828L46.3918 22.8493V21.6719C46.3918 21.4357 46.298 21.2091 46.131 21.0421C45.964 20.8751 45.7374 20.7812 45.5012 20.7812C45.265 20.7812 45.0385 20.8751 44.8715 21.0421C44.7044 21.2091 44.6106 21.4357 44.6106 21.6719V22.8496L42.2748 23.7831C41.6426 24.0368 41.1309 24.5221 40.8443 25.1402C40.5576 25.7582 40.5176 26.4623 40.7324 27.1088L41.8449 30.446L40.7169 32.1382C40.295 31.9593 39.8591 31.8153 39.4137 31.7075L39.9869 28.8555C40.0714 28.4289 39.9975 27.986 39.7791 27.6099C39.5607 27.2338 39.2127 26.9501 38.8003 26.812L37.6068 26.4112L37.5957 26.4076C37.5588 26.3956 37.5211 26.387 37.4844 26.3765V25.2344C37.4844 24.9982 37.3905 24.7716 37.2235 24.6046C37.0565 24.4376 36.83 24.3438 36.5937 24.3438C36.3575 24.3438 36.131 24.4376 35.964 24.6046C35.797 24.7716 35.7031 24.9982 35.7031 25.2344V26.3765C35.6658 26.387 35.6282 26.3958 35.5918 26.4076L35.5807 26.4112L34.3894 26.8114C33.9766 26.9493 33.6281 27.2331 33.4094 27.6094C33.1907 27.9858 33.1167 28.429 33.2012 28.856L33.9123 32.3947C33.3348 32.8983 32.9256 33.5668 32.7398 34.3102L32.1682 36.596C32.1269 36.7612 32.1339 36.9348 32.1883 37.0962C32.2426 37.2576 32.3422 37.4001 32.475 37.5066C32.6079 37.6132 32.7685 37.6795 32.9379 37.6975C33.1072 37.7156 33.2782 37.6847 33.4306 37.6085L35.7754 36.4362C36.0566 36.2946 36.3631 36.2102 36.6771 36.1879C36.9912 36.1656 37.3065 36.2058 37.6049 36.3062C38.311 36.5428 38.9186 37.007 39.3326 37.626C39.5777 37.9914 39.7479 38.4019 39.8333 38.8335C39.9187 39.2652 39.9176 39.7095 39.8302 40.1408L39.3208 42.6877L37.2 45.7058C36.9995 45.893 36.7416 46.007 36.4681 46.0292C36.1947 46.0514 35.9217 45.9806 35.6935 45.8283L35.659 45.8054C35.4439 45.6626 35.2787 45.4563 35.1864 45.2153C35.0941 44.9742 35.0792 44.7103 35.1439 44.4604C35.2308 44.129 35.3199 43.7823 35.4 43.4687C35.5237 42.9783 35.5059 42.4629 35.3485 41.9822C35.1912 41.5016 34.9008 41.0754 34.511 40.7531L20.2373 28.9995C20.086 28.8748 19.8977 28.8035 19.7018 28.7968C19.5058 28.79 19.3131 28.8481 19.1535 28.962C18.9939 29.0759 18.8764 29.2393 18.8191 29.4269C18.7619 29.6144 18.7681 29.8156 18.8369 29.9992L20.3198 33.9537C21.1543 36.1757 22.5511 38.1431 24.3738 39.6635L24.7826 40.0041L20.6719 39.4903C20.5026 39.4691 20.3308 39.497 20.1769 39.5707C20.023 39.6443 19.8935 39.7606 19.8038 39.9058C19.7141 40.0509 19.668 40.2188 19.6709 40.3894C19.6739 40.56 19.7257 40.7261 19.8204 40.8681C21.0789 42.7636 22.9047 44.2125 25.0367 45.0074L25.6677 45.2439L21.3537 45.7232C21.1685 45.7438 20.9944 45.822 20.856 45.9467C20.7175 46.0714 20.6217 46.2364 20.582 46.4185C20.5422 46.6006 20.5606 46.7905 20.6345 46.9616C20.7084 47.1326 20.8341 47.2762 20.9939 47.3721L22.5553 48.3094C24.4242 49.4329 26.4765 50.2183 28.618 50.6298C27.2545 51.5664 26.0823 52.7545 25.1642 54.1305C25.0747 54.2646 25.0232 54.4206 25.0154 54.5817C25.0075 54.7428 25.0436 54.903 25.1197 55.0453C25.1958 55.1875 25.3092 55.3064 25.4476 55.3892C25.586 55.472 25.7443 55.5157 25.9056 55.5156H26.2568C27.9857 55.5172 29.6924 55.1276 31.2493 54.376V56.4062C31.2494 56.5824 31.3016 56.7545 31.3995 56.901C31.4973 57.0474 31.6364 57.1615 31.7992 57.2289C31.9619 57.2963 32.1409 57.3139 32.3137 57.2796C32.4864 57.2452 32.6451 57.1604 32.7696 57.0359L34.8118 54.9938L35.9633 56.1453C36.0565 56.2385 36.1692 56.3098 36.2932 56.3542C36.4173 56.3985 36.5497 56.4148 36.6808 56.4018C36.8119 56.3888 36.9385 56.3469 37.0515 56.2791C37.1645 56.2113 37.261 56.1192 37.3341 56.0096L38.1273 54.8198C38.4036 54.4047 38.8007 54.0845 39.265 53.9025V54.0371C39.2636 54.7456 38.9829 55.425 38.4838 55.9279L37.8514 56.5602C37.1678 57.2402 36.6259 58.049 36.2571 58.9398C35.8882 59.8307 35.6997 60.7858 35.7025 61.75C35.7026 61.9685 35.783 62.1793 35.9284 62.3423C36.0738 62.5054 36.2741 62.6093 36.4911 62.6343L35.9797 63.6572L34.8679 63.9355L32.5954 61.394C32.9029 60.9056 33.0438 60.3306 32.9971 59.7554C32.9503 59.1801 32.7183 58.6355 32.336 58.2032C31.9536 57.7709 31.4414 57.4741 30.8762 57.3574C30.3109 57.2407 29.7231 57.3103 29.2008 57.5559C28.6785 57.8014 28.2498 58.2096 27.979 58.7193C27.7082 59.229 27.6099 59.8128 27.6989 60.383C27.7878 60.9533 28.0592 61.4794 28.4723 61.8824C28.8854 62.2855 29.418 62.5438 29.9903 62.6186C30.106 62.6338 30.2226 62.6414 30.3393 62.6414C30.6297 62.6406 30.9179 62.5921 31.1924 62.4977L32.9147 64.4237L32.8145 64.4487C32.701 64.4771 32.5942 64.5275 32.5003 64.5971C32.4063 64.6668 32.3269 64.7542 32.2668 64.8545C32.1452 65.0571 32.1092 65.2996 32.1664 65.5288C32.2237 65.758 32.3697 65.955 32.5723 66.0765C32.7748 66.1981 33.0174 66.2341 33.2466 66.1769L34.2596 65.9237L35.0413 66.7908C35.1196 66.8777 35.2142 66.9483 35.3198 66.9986C35.4254 67.0489 35.5399 67.0779 35.6567 67.084C35.7735 67.09 35.8904 67.073 36.0006 67.0339C36.1108 66.9948 36.2123 66.9344 36.2992 66.8561C36.386 66.7778 36.4566 66.6831 36.5069 66.5775C36.5572 66.4719 36.5863 66.3574 36.5923 66.2406C36.5984 66.1238 36.5814 66.007 36.5423 65.8967C36.5032 65.7865 36.4427 65.685 36.3644 65.5982L36.2168 65.4344L36.8095 65.2862C36.9341 65.2551 37.0506 65.1973 37.1508 65.1169C37.251 65.0365 37.3326 64.9354 37.3901 64.8204L38.4794 62.6406H39.265C39.4304 62.6406 39.5925 62.5945 39.7332 62.5076C39.8739 62.4206 39.9875 62.2962 40.0615 62.1482C40.4328 61.4011 40.9836 60.7577 41.6646 60.2757L41.9179 60.6556L39.8171 64.3319C38.8723 65.9871 38.3751 67.8598 38.3743 69.7656C38.3743 70.0018 38.4682 70.2284 38.6352 70.3954C38.8022 70.5624 39.0287 70.6562 39.265 70.6562C39.5012 70.6562 39.7277 70.5624 39.8947 70.3954C40.0617 70.2284 40.1556 70.0018 40.1556 69.7656C40.1563 68.1698 40.5727 66.6017 41.3638 65.2158L42.5803 63.0869L42.4736 63.3535C41.5125 65.7426 41.3339 68.3751 41.9634 70.8722C41.9914 70.9862 42.0415 71.0934 42.111 71.1879C42.1806 71.2824 42.268 71.3622 42.3685 71.4228C42.4689 71.4834 42.5804 71.5235 42.6964 71.5409C42.8124 71.5583 42.9307 71.5526 43.0445 71.5242C43.1583 71.4957 43.2653 71.4451 43.3595 71.3751C43.4537 71.3052 43.5331 71.2173 43.5932 71.1166C43.6533 71.0159 43.6929 70.9043 43.7098 70.7882C43.7267 70.6721 43.7204 70.5538 43.6915 70.4402C43.1536 68.3062 43.3062 66.0567 44.1275 64.015L44.1387 63.9867L44.6085 64.6914V73.3281C44.6085 73.5643 44.7023 73.7909 44.8693 73.9579C45.0364 74.1249 45.2629 74.2188 45.4991 74.2188C45.7353 74.2188 45.9618 74.1249 46.1289 73.9579C46.2959 73.7909 46.3897 73.5643 46.3897 73.3281V64.691L46.8595 63.9862L46.8707 64.0145C47.692 66.0562 47.8446 68.3058 47.3067 70.4397C47.2778 70.5534 47.2715 70.6717 47.2884 70.7877C47.3053 70.9038 47.3449 71.0154 47.405 71.1161C47.4651 71.2169 47.5445 71.3047 47.6387 71.3747C47.7329 71.4446 47.8399 71.4953 47.9537 71.5237C48.0675 71.5522 48.1858 71.5579 48.3018 71.5405C48.4178 71.5231 48.5293 71.4829 48.6297 71.4224C48.7302 71.3618 48.8177 71.282 48.8872 71.1875C48.9567 71.093 49.0068 70.9857 49.0348 70.8718C49.6642 68.3746 49.4855 65.7422 48.5244 63.353L48.4178 63.0858L49.6344 65.215C50.4258 66.6011 50.8424 68.1695 50.8431 69.7656C50.8431 70.0018 50.9369 70.2284 51.1039 70.3954C51.271 70.5624 51.4975 70.6562 51.7337 70.6562C51.9699 70.6562 52.1964 70.5624 52.3635 70.3954C52.5305 70.2284 52.6243 70.0018 52.6243 69.7656C52.6235 67.8598 52.1262 65.9871 51.1814 64.3319L49.0805 60.6556L49.3338 60.2757C50.0148 60.7577 50.5656 61.4011 50.9369 62.1482C51.0109 62.2962 51.1246 62.4207 51.2654 62.5076C51.4061 62.5946 51.5683 62.6407 51.7337 62.6406H52.5192L53.609 64.8201C53.6664 64.9349 53.748 65.0359 53.8481 65.1163C53.9481 65.1967 54.0644 65.2544 54.1889 65.2857L56.4928 65.8636C56.737 66.4153 57.1173 66.896 57.5982 67.2606C58.079 67.6251 58.6445 67.8615 59.2418 67.9477C59.839 68.0339 60.4483 67.9669 61.0126 67.7531C61.5768 67.5394 62.0775 67.1858 62.4677 66.7255C62.8579 66.2653 63.1249 65.7135 63.2434 65.1218C63.362 64.5302 63.3284 63.9181 63.1457 63.3431C62.963 62.768 62.6372 62.2487 62.199 61.834C61.7607 61.4193 61.2242 61.1227 60.6399 60.972V59.9688C60.6399 59.7325 60.5461 59.506 60.3791 59.339C60.2121 59.172 59.9855 59.0781 59.7493 59.0781C59.5131 59.0781 59.2866 59.172 59.1196 59.339C58.9525 59.506 58.8587 59.7325 58.8587 59.9688V60.972C58.1716 61.1509 57.5534 61.5306 57.083 62.0624C56.6126 62.5943 56.3115 63.2543 56.218 63.9582L55.0192 63.6576L54.5071 62.6344C54.7242 62.6095 54.9246 62.5056 55.0701 62.3425C55.2156 62.1794 55.2961 61.9686 55.2962 61.75C55.299 60.7858 55.1105 59.8307 54.7417 58.9399C54.3729 58.0491 53.8311 57.2402 53.1476 56.5602L52.5152 55.9279C52.0161 55.425 51.7355 54.7456 51.734 54.0371V53.9025C52.1983 54.0845 52.5954 54.4047 52.8717 54.8198L53.6649 56.0096C53.738 56.1192 53.8345 56.2113 53.9475 56.2791C54.0605 56.3469 54.1871 56.3888 54.3182 56.4018C54.4493 56.4148 54.5817 56.3985 54.7058 56.3542C54.8298 56.3098 54.9425 56.2385 55.0357 56.1453L56.1872 54.9938L58.2292 57.0359C58.3538 57.1604 58.5125 57.2451 58.6852 57.2794C58.8579 57.3137 59.0369 57.296 59.1995 57.2287C59.3622 57.1613 59.5013 57.0472 59.5991 56.9008C59.697 56.7544 59.7492 56.5823 59.7493 56.4062V54.3755C61.3062 55.1273 63.013 55.5171 64.7418 55.5156H65.0931C65.2543 55.5156 65.4125 55.4719 65.5508 55.389C65.689 55.3062 65.8023 55.1874 65.8783 55.0452C65.9544 54.9031 65.9904 54.743 65.9826 54.582C65.9749 54.4209 65.9235 54.2651 65.8341 54.1309C64.916 52.755 63.7438 51.5668 62.3805 50.6302C64.5219 50.2188 66.5741 49.4333 68.443 48.3098L70.0044 47.373C70.1642 47.2771 70.2899 47.1335 70.3638 46.9625C70.4377 46.7914 70.4561 46.6014 70.4164 46.4194C70.3766 46.2373 70.2808 46.0723 70.1423 45.9476C70.0039 45.8228 69.8298 45.7447 69.6446 45.7241L65.3306 45.2448L65.9615 45.0083C68.0935 44.2134 69.9194 42.7645 71.1779 40.869C71.2727 40.727 71.3247 40.5607 71.3277 40.3901C71.3307 40.2194 71.2846 40.0514 71.1949 39.9062C71.1051 39.7609 70.9755 39.6446 70.8215 39.5709C70.6675 39.4973 70.4956 39.4694 70.3262 39.4907L66.2155 40.0045L66.6243 39.6639C68.447 38.1436 69.844 36.1762 70.6785 33.9542ZM30.2221 60.8516C29.9983 60.8218 29.7941 60.7081 29.651 60.5335C29.5078 60.3589 29.4363 60.1364 29.4509 59.9111C29.4655 59.6858 29.5651 59.4744 29.7297 59.3198C29.8942 59.1651 30.1113 59.0788 30.3371 59.0781C30.5211 59.0778 30.7007 59.1346 30.8511 59.2406C31.0015 59.3466 31.1153 59.4967 31.1768 59.6702C31.2383 59.8436 31.2445 60.0319 31.1945 60.209C31.1446 60.3861 31.0409 60.5433 30.8978 60.659C30.8804 60.6709 30.8635 60.6838 30.8468 60.6971C30.6652 60.8248 30.4423 60.8799 30.2221 60.8516ZM59.7493 66.2031C59.4371 66.2027 59.1304 66.1202 58.8601 65.9639C58.5897 65.8076 58.3652 65.5829 58.2091 65.3125H61.2896C61.1334 65.5829 60.9089 65.8076 60.6386 65.9639C60.3683 66.1202 60.0616 66.2027 59.7493 66.2031ZM61.2896 63.5312H60.6399V62.8817C60.9093 63.038 61.1332 63.2619 61.2896 63.5312ZM58.8587 62.8817V63.5312H58.2091C58.3655 63.2618 58.5894 63.0378 58.8587 62.8812V62.8817ZM41.0462 43.9375H49.9524V54.2318C49.9526 54.4188 49.8939 54.601 49.7846 54.7527C49.6753 54.9044 49.5209 55.0178 49.3435 55.0768L45.4993 56.3582L41.6552 55.0768C41.4777 55.0178 41.3234 54.9044 41.2141 54.7527C41.1048 54.601 41.046 54.4188 41.0462 54.2318V43.9375ZM56.0217 34.8431C55.5315 34.5963 54.9972 34.4491 54.4497 34.4102C53.9023 34.3713 53.3525 34.4413 52.8323 34.6163C51.7507 34.9788 50.8199 35.6897 50.1857 36.6378C49.8103 37.1976 49.5496 37.8263 49.4188 38.4875C49.288 39.1487 49.2896 39.8292 49.4235 40.4898L49.7567 42.1562H46.5262L46.9795 38.9834C47.2068 37.3922 48.0005 35.9363 49.2148 34.8831C50.4291 33.8299 51.9825 33.2501 53.5899 33.25H54.6208C55.0601 33.2499 55.4869 33.3967 55.8333 33.667C56.1797 33.9373 56.4259 34.3156 56.5326 34.7418L56.6345 35.1489L56.0217 34.8431ZM52.7654 28.5006L53.9525 28.102C54.2473 28.0096 54.5633 28.0096 54.8581 28.102L56.0529 28.5053L55.4389 31.5603C55.1704 31.4998 54.896 31.469 54.6208 31.4684H53.5899C53.5117 31.4684 53.4338 31.4695 53.3561 31.4718L52.7654 28.5006ZM42.9364 25.437L45.4993 24.4118L48.0623 25.437C48.2731 25.5215 48.4436 25.6833 48.5392 25.8893C48.6347 26.0953 48.648 26.33 48.5764 26.5455L47.5293 29.6875H43.4694L42.4222 26.546C42.3505 26.3305 42.3637 26.0956 42.4593 25.8895C42.5549 25.6834 42.7255 25.5215 42.9364 25.437ZM43.3038 31.4682H47.6944L48.7199 33.0065C47.1813 34.0932 46.0482 35.661 45.4991 37.4629C44.9499 35.6611 43.8168 34.0933 42.2783 33.0065L43.3038 31.4682ZM36.14 28.102C36.4348 28.0094 36.7508 28.0094 37.0456 28.102L38.2404 28.5052L37.6442 31.4716C37.566 31.4695 37.4875 31.4684 37.4088 31.4683H36.3779C36.103 31.4688 35.8291 31.4996 35.561 31.5599L34.9528 28.5006L36.14 28.102ZM38.1661 34.6163C37.6459 34.4413 37.0962 34.3712 36.5487 34.4102C36.0012 34.4491 35.4669 34.5963 34.9767 34.8431L34.3644 35.1494L34.4662 34.7421C34.5728 34.3159 34.8189 33.9375 35.1653 33.6671C35.5117 33.3968 35.9385 33.25 36.3779 33.25H37.4088C39.0162 33.25 40.5697 33.8298 41.784 34.883C42.9982 35.9362 43.7919 37.3921 44.0191 38.9834L44.4724 42.1562H41.242L41.5751 40.4907C41.7091 39.8301 41.7107 39.1495 41.5799 38.4884C41.449 37.8272 41.1884 37.1985 40.813 36.6387C40.1789 35.6903 39.248 34.979 38.1664 34.6163H38.1661ZM36.645 53.8316L36.4544 54.1173L35.4413 53.1043C35.2743 52.9373 35.0477 52.8434 34.8115 52.8434C34.5754 52.8434 34.3488 52.9373 34.1818 53.1043L33.0304 54.2557V52.8438C33.0304 52.6825 32.9866 52.5243 32.9038 52.386C32.821 52.2477 32.7021 52.1345 32.56 52.0584C32.4179 51.9823 32.2577 51.9463 32.0967 51.9541C31.9357 51.9619 31.7798 52.0132 31.6457 52.1026C30.5044 52.8649 29.2142 53.376 27.8605 53.6019C28.7529 52.6664 29.8003 51.8922 30.9565 51.3135L31.6468 50.9684C31.815 50.8843 31.9523 50.7492 32.0389 50.5823C32.1256 50.4154 32.1572 50.2254 32.1293 50.0394C32.1013 49.8534 32.0152 49.6811 31.8833 49.547C31.7514 49.413 31.5804 49.3242 31.3949 49.2933L29.3777 48.9571C27.5699 48.6573 25.8234 48.0636 24.2075 47.1994L29.5664 46.604C29.7654 46.5819 29.9511 46.4935 30.0936 46.3529C30.2361 46.2123 30.3271 46.0277 30.3519 45.8291C30.3767 45.6304 30.3338 45.4292 30.2302 45.2579C30.1266 45.0866 29.9683 44.9552 29.7808 44.8849L25.6624 43.3399C24.577 42.9348 23.5797 42.3245 22.725 41.5424L27.5762 42.1488C27.7672 42.1727 27.9608 42.134 28.128 42.0386C28.2952 41.9433 28.427 41.7963 28.5036 41.6197C28.5803 41.4431 28.5977 41.2465 28.5532 41.0592C28.5087 40.8719 28.4047 40.7041 28.2568 40.5808L25.5145 38.2955C23.929 36.973 22.7139 35.2616 21.9881 33.3287L21.6733 32.4895L33.377 42.1279C33.5063 42.2346 33.6027 42.3758 33.655 42.535C33.7073 42.6943 33.7134 42.8651 33.6725 43.0277C33.5931 43.3381 33.5048 43.6811 33.419 44.0091C33.2605 44.6178 33.2958 45.2608 33.52 45.8484C33.7442 46.4361 34.1461 46.9393 34.6698 47.2877L34.7043 47.3106C35.2876 47.6997 35.9889 47.872 36.6862 47.7975C37.3834 47.7231 38.0325 47.4066 38.5205 46.9031C38.553 46.8695 38.5828 46.8335 38.6096 46.7952L39.2647 45.8628V47.9453L38.6275 48.4232C38.0233 48.8753 37.294 49.1292 36.5398 49.1502C35.7855 49.1711 35.0432 48.958 34.4149 48.5401C34.3176 48.4753 34.2085 48.4302 34.0937 48.4075C33.979 48.3848 33.8609 48.3849 33.7462 48.4079C33.6316 48.4308 33.5225 48.4761 33.4253 48.5412C33.3282 48.6063 33.2447 48.6899 33.1799 48.7872C33.115 48.8845 33.0699 48.9936 33.0472 49.1084C33.0245 49.2231 33.0247 49.3412 33.0476 49.4559C33.0705 49.5706 33.1158 49.6796 33.1809 49.7768C33.246 49.874 33.3296 49.9574 33.4269 50.0223C34.288 50.5951 35.2947 50.9104 36.3288 50.9312C37.3628 50.9519 38.3813 50.6772 39.2647 50.1394V52.0495C38.1928 52.2796 37.2529 52.9188 36.6452 53.8313L36.645 53.8316ZM51.8874 57.8195C52.7151 58.6425 53.2602 59.7068 53.4445 60.8594H52.2589C51.5901 59.7515 50.6192 58.8572 49.4602 58.2815C49.266 58.1844 49.0431 58.1616 48.8333 58.2173C48.6235 58.273 48.4412 58.4034 48.3208 58.5841L45.4993 62.8162L42.6778 58.5836C42.5574 58.403 42.3752 58.2726 42.1654 58.2169C41.9557 58.1612 41.7328 58.184 41.5386 58.281C40.3794 58.8569 39.4085 59.7513 38.7396 60.8594H37.5541C37.7385 59.7071 38.2836 58.643 39.111 57.8201L39.7433 57.1878C39.9817 56.9485 40.1917 56.6826 40.3692 56.3953C40.5897 56.5553 40.8334 56.6806 41.0918 56.7668L45.2177 58.1422C45.4005 58.2032 45.5982 58.2032 45.781 58.1422L49.9067 56.7668C50.1652 56.6806 50.4089 56.5553 50.6294 56.3953C50.807 56.6826 51.017 56.9485 51.2553 57.1878L51.8874 57.8195ZM65.4841 38.2955L62.7417 40.5808C62.5938 40.7041 62.4899 40.8719 62.4454 41.0592C62.4009 41.2464 62.4183 41.4431 62.4949 41.6196C62.5715 41.7962 62.7033 41.9432 62.8705 42.0386C63.0377 42.134 63.2313 42.1726 63.4223 42.1488L68.2736 41.5424C67.4189 42.3246 66.4216 42.9348 65.3361 43.3399L61.2179 44.8843C61.0304 44.9546 60.8721 45.086 60.7685 45.2573C60.6648 45.4286 60.622 45.6298 60.6467 45.8285C60.6715 46.0272 60.7625 46.2117 60.905 46.3523C61.0476 46.4929 61.2333 46.5814 61.4323 46.6035L66.7912 47.1989C65.175 48.0631 63.4283 48.6569 61.6203 48.9566L59.603 49.2928C59.4175 49.3237 59.2466 49.4126 59.1147 49.5466C58.9828 49.6806 58.8967 49.853 58.8687 50.0389C58.8407 50.2249 58.8724 50.415 58.959 50.5818C59.0457 50.7487 59.183 50.8839 59.3512 50.968L60.0415 51.3131C61.1976 51.8918 62.245 52.6659 63.1374 53.6014C61.7837 53.3755 60.4935 52.8645 59.3522 52.1022C59.2181 52.0129 59.0622 51.9617 58.9012 51.954C58.7402 51.9463 58.5802 51.9824 58.4381 52.0585C58.296 52.1346 58.1773 52.2479 58.0945 52.3861C58.0117 52.5244 57.968 52.6826 57.9681 52.8438V54.2561L56.8166 53.1046C56.7339 53.0219 56.6357 52.9563 56.5277 52.9115C56.4196 52.8668 56.3038 52.8437 56.1868 52.8437C56.0699 52.8437 55.954 52.8668 55.846 52.9115C55.7379 52.9563 55.6397 53.0219 55.557 53.1046L54.544 54.1177L54.3534 53.8319C53.7457 52.9192 52.8058 52.2798 51.7337 52.0496V50.1385C52.6171 50.6763 53.6356 50.951 54.6697 50.9303C55.7037 50.9095 56.7104 50.5942 57.5715 50.0214C57.7681 49.8903 57.9045 49.6866 57.9508 49.455C57.9972 49.2234 57.9496 48.9828 57.8186 48.7863C57.6875 48.5897 57.4838 48.4533 57.2522 48.407C57.0206 48.3606 56.78 48.4082 56.5835 48.5392C55.9552 48.9571 55.213 49.1702 54.4587 49.1493C53.7045 49.1283 52.9752 48.8744 52.3711 48.4224L51.7337 47.9453V45.8635L52.3889 46.7959C52.4157 46.8341 52.4455 46.8702 52.4779 46.9037C52.966 47.4072 53.6152 47.7236 54.3125 47.798C55.0098 47.8723 55.711 47.6999 56.2944 47.3107L56.3294 47.2875C56.853 46.939 57.2547 46.4359 57.4788 45.8483C57.7029 45.2607 57.7382 44.6179 57.5797 44.0093C57.4938 43.6813 57.4054 43.3382 57.3262 43.0278C57.2853 42.8653 57.2914 42.6944 57.3437 42.5352C57.396 42.3759 57.4923 42.2347 57.6216 42.128L69.3253 32.4895L69.0107 33.3287C68.2848 35.2616 67.0696 36.973 65.4841 38.2955Z" fill="url(#paint0_linear)"/>
<path d="M43.0883 52.5825C43.171 52.6652 43.2691 52.7308 43.3772 52.7755C43.4853 52.8203 43.6011 52.8433 43.718 52.8433C43.835 52.8433 43.9508 52.8203 44.0589 52.7755C44.1669 52.7308 44.2651 52.6652 44.3478 52.5825C44.6586 52.2722 44.887 51.8891 45.0121 51.4681C45.1371 51.0471 45.155 50.6015 45.064 50.1719H45.983C46.2487 50.538 46.3912 50.979 46.3899 51.4313V51.9531C46.3899 52.1893 46.4837 52.4159 46.6508 52.5829C46.8178 52.7499 47.0443 52.8438 47.2805 52.8438C47.5167 52.8438 47.7433 52.7499 47.9103 52.5829C48.0773 52.4159 48.1712 52.1893 48.1712 51.9531V51.4313C48.1734 50.5483 47.8759 49.6906 47.3273 48.9986C47.3866 48.8217 47.5 48.6679 47.6514 48.5588C47.8028 48.4498 47.9846 48.3909 48.1712 48.3906C48.4074 48.3906 48.6339 48.2968 48.8009 48.1298C48.9679 47.9627 49.0618 47.7362 49.0618 47.5C49.0618 47.2638 48.9679 47.0373 48.8009 46.8702C48.6339 46.7032 48.4074 46.6094 48.1712 46.6094C47.6188 46.6101 47.0803 46.7816 46.6293 47.1006C46.1784 47.4195 45.8372 47.8701 45.6525 48.3906H44.6087V46.6094C44.6087 46.3732 44.5148 46.1466 44.3478 45.9796C44.1808 45.8126 43.9543 45.7188 43.718 45.7188C43.4818 45.7188 43.2553 45.8126 43.0883 45.9796C42.9213 46.1466 42.8274 46.3732 42.8274 46.6094V49.2812C42.8276 49.4181 42.8594 49.5531 42.9204 49.6756C42.9204 49.6768 42.9204 49.6784 42.9215 49.6796L43.2488 50.3342C43.3294 50.495 43.3573 50.6772 43.3285 50.8547C43.2996 51.0323 43.2156 51.1963 43.0883 51.3233C42.9214 51.4903 42.8276 51.7168 42.8276 51.9529C42.8276 52.189 42.9214 52.4155 43.0883 52.5825Z" fill="url(#paint1_linear)"/>
</g>
<g filter="url(#filter2_d)">
<circle cx="46" cy="44" r="34.5" stroke="url(#paint2_linear)" stroke-width="3"/>
</g>
<defs>
<filter id="filter0_d" x="0" y="0" width="92" height="92" filterUnits="userSpaceOnUse" color-interpolation-filters="sRGB">
<feFlood flood-opacity="0" result="BackgroundImageFix"/>
<feColorMatrix in="SourceAlpha" type="matrix" values="0 0 0 0 0 0 0 0 0 0 0 0 0 0 0 0 0 0 127 0"/>
<feOffset dy="2"/>
<feGaussianBlur stdDeviation="5"/>
<feColorMatrix type="matrix" values="0 0 0 0 0 0 0 0 0 0 0 0 0 0 0 0 0 0 0.3 0"/>
<feBlend mode="normal" in2="BackgroundImageFix" result="effect1_dropShadow"/>
<feBlend mode="normal" in="SourceGraphic" in2="effect1_dropShadow" result="shape"/>
</filter>
<filter id="filter1_i" x="17" y="19" width="57" height="59" filterUnits="userSpaceOnUse" color-interpolation-filters="sRGB">
<feFlood flood-opacity="0" result="BackgroundImageFix"/>
<feBlend mode="normal" in="SourceGraphic" in2="BackgroundImageFix" result="shape"/>
<feColorMatrix in="SourceAlpha" type="matrix" values="0 0 0 0 0 0 0 0 0 0 0 0 0 0 0 0 0 0 127 0" result="hardAlpha"/>
<feOffset dy="2"/>
<feGaussianBlur stdDeviation="2.5"/>
<feComposite in2="hardAlpha" operator="arithmetic" k2="-1" k3="1"/>
<feColorMatrix type="matrix" values="0 0 0 0 0 0 0 0 0 0 0 0 0 0 0 0 0 0 0.3 0"/>
<feBlend mode="normal" in2="shape" result="effect1_innerShadow"/>
</filter>
<filter id="filter2_d" x="0" y="0" width="92" height="92" filterUnits="userSpaceOnUse" color-interpolation-filters="sRGB">
<feFlood flood-opacity="0" result="BackgroundImageFix"/>
<feColorMatrix in="SourceAlpha" type="matrix" values="0 0 0 0 0 0 0 0 0 0 0 0 0 0 0 0 0 0 127 0"/>
<feOffset dy="2"/>
<feGaussianBlur stdDeviation="5"/>
<feColorMatrix type="matrix" values="0 0 0 0 0 0 0 0 0 0 0 0 0 0 0 0 0 0 0.3 0"/>
<feBlend mode="normal" in2="BackgroundImageFix" result="effect1_dropShadow"/>
<feBlend mode="normal" in="SourceGraphic" in2="effect1_dropShadow" result="shape"/>
</filter>
<linearGradient id="paint0_linear" x1="45.4992" y1="20.7812" x2="45.4992" y2="74.2188" gradientUnits="userSpaceOnUse">
<stop stop-color="#09329E"/>
<stop offset="1" stop-color="#7A14B0"/>
</linearGradient>
<linearGradient id="paint1_linear" x1="45.9446" y1="45.7188" x2="45.9446" y2="52.8438" gradientUnits="userSpaceOnUse">
<stop stop-color="#09329E"/>
<stop offset="1" stop-color="#7A14B0"/>
</linearGradient>
<linearGradient id="paint2_linear" x1="46" y1="8" x2="46" y2="80" gradientUnits="userSpaceOnUse">
<stop stop-color="#09329E"/>
<stop offset="1" stop-color="#7A14B0"/>
</linearGradient>
</defs>
</svg>
