<svg width="92" height="92" viewBox="0 0 92 92" fill="none" xmlns="http://www.w3.org/2000/svg">
<g filter="url(#filter0_d)">
<circle cx="46" cy="44" r="36" fill="white"/>
</g>
<g filter="url(#filter1_i)">
<mask id="mask0" mask-type="alpha" maskUnits="userSpaceOnUse" x="29" y="20" width="36" height="42">
<path d="M35.1273 37.9419L40.1428 36.17V24.7976H35.1273V37.9419Z" fill="white"/>
<path d="M48.8743 37.9419L53.8936 36.17V24.7976H48.8743V37.9419Z" fill="white"/>
<path d="M29 61.3562H65V49.1094H29V61.3562ZM46.2413 50.9962H50.1029V57.1751H46.2413V50.9962ZM39.4156 50.9962H43.2791V57.1751H39.4156V50.9962ZM32.3373 50.9962H36.1969V57.1751H32.3373V50.9962Z" fill="white"/>
<path d="M56.4999 41.859L55.5144 36.8569L42.9997 41.859L41.5014 36.8569L29 41.859V47.1921H64.9981V41.859H56.4999Z" fill="white"/>
<path d="M32.8597 23.9823C33.4892 23.8637 33.9753 23.5097 34.3599 23.1231C34.7598 22.7308 35.066 22.3386 35.5234 22.1032C35.9558 21.8602 36.5069 21.7913 36.8629 21.8621C37.2035 21.9214 37.4216 22.0687 37.6742 22.4572C37.9115 22.8284 38.0837 23.3011 38.2942 23.7967H38.3956C38.5755 23.2647 38.5832 22.6983 38.4014 22.1262C38.3057 21.841 38.1411 21.5483 37.8656 21.3167C37.5958 21.0794 37.1958 20.9665 36.8648 21.0048C36.1759 21.089 35.7721 21.5234 35.3435 21.8219C34.9206 22.1281 34.4824 22.461 34.0384 22.66C33.5811 22.8571 33.1257 22.993 32.7276 23.0179C32.3239 23.0274 32.01 22.8973 31.6962 22.6581C31.0475 22.1759 30.5289 21.2861 29.9836 20.3867L29.8822 20.4059C29.8133 21.4851 30.0735 22.6371 31.0073 23.5116C31.4819 23.9364 32.2358 24.1297 32.8597 23.9823Z" fill="white"/>
<path d="M48.3959 24.0705C48.8705 23.9729 49.2072 23.6974 49.4732 23.3931C49.7316 23.1022 49.944 22.8133 50.2578 22.6621C50.5601 22.4995 50.9639 22.5109 51.161 22.5817C51.339 22.6468 51.4232 22.6717 51.6145 22.9147C51.7867 23.1424 51.936 23.4562 52.1407 23.7949H52.2441C52.4297 23.4199 52.4565 23.0123 52.3417 22.5837C52.2785 22.3713 52.1561 22.1454 51.9456 21.9637C51.7389 21.7742 51.4193 21.69 51.1648 21.7245C50.6386 21.8067 50.3745 22.1627 50.0798 22.3808C49.7871 22.6104 49.4732 22.8152 49.146 22.9358C48.8245 23.0353 48.5069 23.1041 48.2696 23.1061C48.0227 23.0927 47.8677 23.0104 47.6764 22.8745C47.2688 22.5971 46.8689 22.0211 46.3943 21.4221L46.2929 21.4432C46.1494 22.2201 46.2929 23.0582 46.9837 23.728C47.3434 24.0514 47.929 24.1949 48.3959 24.0705Z" fill="white"/>
</mask>
<g mask="url(#mask0)">
<path d="M35.1273 37.9419L40.1428 36.17V24.7976H35.1273V37.9419Z" fill="white"/>
<path d="M48.8743 37.9419L53.8936 36.17V24.7976H48.8743V37.9419Z" fill="white"/>
<path d="M29 61.3562H65V49.1094H29V61.3562ZM46.2413 50.9962H50.1029V57.1751H46.2413V50.9962ZM39.4156 50.9962H43.2791V57.1751H39.4156V50.9962ZM32.3373 50.9962H36.1969V57.1751H32.3373V50.9962Z" fill="white"/>
<path d="M56.4999 41.859L55.5144 36.8569L42.9997 41.859L41.5014 36.8569L29 41.859V47.1921H64.9981V41.859H56.4999Z" fill="white"/>
<path d="M32.8597 23.9823C33.4892 23.8637 33.9753 23.5097 34.3599 23.1231C34.7598 22.7308 35.066 22.3386 35.5234 22.1032C35.9558 21.8602 36.5069 21.7913 36.8629 21.8621C37.2035 21.9214 37.4216 22.0687 37.6742 22.4572C37.9115 22.8284 38.0837 23.3011 38.2942 23.7967H38.3956C38.5755 23.2647 38.5832 22.6983 38.4014 22.1262C38.3057 21.841 38.1411 21.5483 37.8656 21.3167C37.5958 21.0794 37.1958 20.9665 36.8648 21.0048C36.1759 21.089 35.7721 21.5234 35.3435 21.8219C34.9206 22.1281 34.4824 22.461 34.0384 22.66C33.5811 22.8571 33.1257 22.993 32.7276 23.0179C32.3239 23.0274 32.01 22.8973 31.6962 22.6581C31.0475 22.1759 30.5289 21.2861 29.9836 20.3867L29.8822 20.4059C29.8133 21.4851 30.0735 22.6371 31.0073 23.5116C31.4819 23.9364 32.2358 24.1297 32.8597 23.9823Z" fill="white"/>
<path d="M48.3959 24.0705C48.8705 23.9729 49.2072 23.6974 49.4732 23.3931C49.7316 23.1022 49.944 22.8133 50.2578 22.6621C50.5601 22.4995 50.9639 22.5109 51.161 22.5817C51.339 22.6468 51.4232 22.6717 51.6145 22.9147C51.7867 23.1424 51.936 23.4562 52.1407 23.7949H52.2441C52.4297 23.4199 52.4565 23.0123 52.3417 22.5837C52.2785 22.3713 52.1561 22.1454 51.9456 21.9637C51.7389 21.7742 51.4193 21.69 51.1648 21.7245C50.6386 21.8067 50.3745 22.1627 50.0798 22.3808C49.7871 22.6104 49.4732 22.8152 49.146 22.9358C48.8245 23.0353 48.5069 23.1041 48.2696 23.1061C48.0227 23.0927 47.8677 23.0104 47.6764 22.8745C47.2688 22.5971 46.8689 22.0211 46.3943 21.4221L46.2929 21.4432C46.1494 22.2201 46.2929 23.0582 46.9837 23.728C47.3434 24.0514 47.929 24.1949 48.3959 24.0705Z" fill="white"/>
</g>
</g>
<defs>
<filter id="filter0_d" x="0" y="0" width="92" height="92" filterUnits="userSpaceOnUse" color-interpolation-filters="sRGB">
<feFlood flood-opacity="0" result="BackgroundImageFix"/>
<feColorMatrix in="SourceAlpha" type="matrix" values="0 0 0 0 0 0 0 0 0 0 0 0 0 0 0 0 0 0 127 0"/>
<feOffset dy="2"/>
<feGaussianBlur stdDeviation="5"/>
<feColorMatrix type="matrix" values="0 0 0 0 0 0 0 0 0 0 0 0 0 0 0 0 0 0 0.3 0"/>
<feBlend mode="normal" in2="BackgroundImageFix" result="effect1_dropShadow"/>
<feBlend mode="normal" in="SourceGraphic" in2="effect1_dropShadow" result="shape"/>
</filter>
<filter id="filter1_i" x="29" y="20.3867" width="36" height="42.9695" filterUnits="userSpaceOnUse" color-interpolation-filters="sRGB">
<feFlood flood-opacity="0" result="BackgroundImageFix"/>
<feBlend mode="normal" in="SourceGraphic" in2="BackgroundImageFix" result="shape"/>
<feColorMatrix in="SourceAlpha" type="matrix" values="0 0 0 0 0 0 0 0 0 0 0 0 0 0 0 0 0 0 127 0" result="hardAlpha"/>
<feOffset dy="2"/>
<feGaussianBlur stdDeviation="2.5"/>
<feComposite in2="hardAlpha" operator="arithmetic" k2="-1" k3="1"/>
<feColorMatrix type="matrix" values="0 0 0 0 0 0 0 0 0 0 0 0 0 0 0 0 0 0 0.3 0"/>
<feBlend mode="normal" in2="shape" result="effect1_innerShadow"/>
</filter>
</defs>
</svg>
