<svg width="92" height="92" viewBox="0 0 92 92" fill="none" xmlns="http://www.w3.org/2000/svg">
<g filter="url(#filter0_d)">
<circle cx="46" cy="44" r="36" fill="white"/>
</g>
<g filter="url(#filter1_i)">
<path d="M56.8734 33.5031C56.1416 36.3008 54.4341 36.917 53.5231 37.0407C52.9619 38.1627 51.7283 40.4557 50.4943 41.6078C50.001 42.0681 49.36 42.4567 48.5891 42.7627C47.605 43.1531 46.5656 43.3512 45.5001 43.3512C44.4347 43.3512 43.3953 43.1531 42.4111 42.7627C41.6405 42.4569 40.9993 42.0683 40.506 41.6078C39.2718 40.4559 38.0382 38.1627 37.477 37.0407C36.5661 36.917 34.8586 36.301 34.1269 33.5031C33.7356 32.007 33.8358 30.7874 34.4249 29.878C34.6853 29.4762 35.001 29.2024 35.2949 29.0171C35.2958 28.7184 35.3082 28.3445 35.3429 27.9192C34.8137 27.1838 34.0942 25.5971 34.9853 23.0289C35.9271 20.3138 38.0564 19.8945 39.0843 19.8582C39.4317 19.2122 40.0882 18.2952 41.2803 17.4521C42.6035 16.5156 44.3315 16 46.1456 16C48.378 16 50.6243 16.7857 52.6417 18.2722C55.9124 20.6821 55.6322 26.028 55.552 26.9987C55.6707 27.8123 55.7036 28.518 55.7051 29.0169C55.9991 29.2022 56.3147 29.4759 56.5751 29.8778C57.1643 30.7874 57.2645 32.0068 56.8734 33.5031ZM66.4389 54.3365V61.9249C66.4389 62.5186 65.9574 63 65.3638 63H25.6363C25.0426 63 24.5612 62.5186 24.5612 61.9249V54.3365C24.5612 51.2277 26.4263 48.4728 29.3127 47.3181L38.7125 43.5582C38.983 43.4503 39.2857 43.4561 39.5517 43.5757C39.8175 43.6948 40.0237 43.9169 40.1226 44.1908L42.4857 50.7239L42.9536 49.3787L42.2092 47.559C42.0737 47.2274 42.112 46.85 42.3118 46.5527C42.5115 46.2553 42.8461 46.0768 43.2043 46.0768H47.7959C48.1542 46.0768 48.4889 46.2553 48.6885 46.5527C48.8882 46.85 48.9265 47.2274 48.7911 47.559L48.0466 49.3787L48.5145 50.7239L50.8776 44.1908C50.9766 43.9169 51.1828 43.6948 51.4485 43.5757C51.7145 43.4563 52.0175 43.4505 52.2878 43.5582L61.6875 47.3181C64.574 48.4728 66.4389 51.2277 66.4389 54.3365ZM60.7158 55.1615C60.7158 54.5679 60.2344 54.0864 59.6407 54.0864H52.4224C51.8287 54.0864 51.3473 54.5679 51.3473 55.1615V58.5138C51.3473 59.1074 51.8287 59.5889 52.4224 59.5889H59.6407C60.2344 59.5889 60.7158 59.1074 60.7158 58.5138V55.1615Z" fill="white"/>
</g>
<defs>
<filter id="filter0_d" x="0" y="0" width="92" height="92" filterUnits="userSpaceOnUse" color-interpolation-filters="sRGB">
<feFlood flood-opacity="0" result="BackgroundImageFix"/>
<feColorMatrix in="SourceAlpha" type="matrix" values="0 0 0 0 0 0 0 0 0 0 0 0 0 0 0 0 0 0 127 0"/>
<feOffset dy="2"/>
<feGaussianBlur stdDeviation="5"/>
<feColorMatrix type="matrix" values="0 0 0 0 0 0 0 0 0 0 0 0 0 0 0 0 0 0 0.3 0"/>
<feBlend mode="normal" in2="BackgroundImageFix" result="effect1_dropShadow"/>
<feBlend mode="normal" in="SourceGraphic" in2="effect1_dropShadow" result="shape"/>
</filter>
<filter id="filter1_i" x="24.5612" y="16" width="41.8777" height="49" filterUnits="userSpaceOnUse" color-interpolation-filters="sRGB">
<feFlood flood-opacity="0" result="BackgroundImageFix"/>
<feBlend mode="normal" in="SourceGraphic" in2="BackgroundImageFix" result="shape"/>
<feColorMatrix in="SourceAlpha" type="matrix" values="0 0 0 0 0 0 0 0 0 0 0 0 0 0 0 0 0 0 127 0" result="hardAlpha"/>
<feOffset dy="2"/>
<feGaussianBlur stdDeviation="2.5"/>
<feComposite in2="hardAlpha" operator="arithmetic" k2="-1" k3="1"/>
<feColorMatrix type="matrix" values="0 0 0 0 0 0 0 0 0 0 0 0 0 0 0 0 0 0 0.3 0"/>
<feBlend mode="normal" in2="shape" result="effect1_innerShadow"/>
</filter>
</defs>
</svg>
