<svg width="64" height="64" viewBox="0 0 64 64" fill="none" xmlns="http://www.w3.org/2000/svg">
<g filter="url(#filter0_d)">
<circle cx="32.1986" cy="28.1986" r="21.5" fill="#C4C4C4"/>
<circle cx="32.1986" cy="28.1986" r="21.5" fill="white"/>
</g>
<g filter="url(#filter1_i)">
<g clip-path="url(#clip0)">
<path d="M45.9302 29.7394C45.8263 29.4902 45.5837 29.3275 45.3144 29.3275H38.0116V12.6665C38.0116 12.2986 37.713 12 37.3451 12H26.682C26.3141 12 26.0155 12.2986 26.0155 12.6665V29.3276H18.6846C18.4154 29.3276 18.1728 29.4902 18.0689 29.7381C17.9662 29.9874 18.0222 30.274 18.2128 30.4646L31.5084 43.8041C31.6336 43.9294 31.803 44.0001 31.9802 44.0001C32.1575 44.0001 32.3268 43.9294 32.452 43.8054L45.7863 30.4659C45.9769 30.2752 46.0342 29.9887 45.9302 29.7394Z" fill="white"/>
</g>
</g>
<defs>
<filter id="filter0_d" x="0.698608" y="0.698608" width="63" height="63" filterUnits="userSpaceOnUse" color-interpolation-filters="sRGB">
<feFlood flood-opacity="0" result="BackgroundImageFix"/>
<feColorMatrix in="SourceAlpha" type="matrix" values="0 0 0 0 0 0 0 0 0 0 0 0 0 0 0 0 0 0 127 0"/>
<feOffset dy="4"/>
<feGaussianBlur stdDeviation="5"/>
<feColorMatrix type="matrix" values="0 0 0 0 0 0 0 0 0 0 0 0 0 0 0 0 0 0 0.3 0"/>
<feBlend mode="normal" in2="BackgroundImageFix" result="effect1_dropShadow"/>
<feBlend mode="normal" in="SourceGraphic" in2="effect1_dropShadow" result="shape"/>
</filter>
<filter id="filter1_i" x="16" y="12" width="32" height="34" filterUnits="userSpaceOnUse" color-interpolation-filters="sRGB">
<feFlood flood-opacity="0" result="BackgroundImageFix"/>
<feBlend mode="normal" in="SourceGraphic" in2="BackgroundImageFix" result="shape"/>
<feColorMatrix in="SourceAlpha" type="matrix" values="0 0 0 0 0 0 0 0 0 0 0 0 0 0 0 0 0 0 127 0" result="hardAlpha"/>
<feOffset dy="2"/>
<feGaussianBlur stdDeviation="2.5"/>
<feComposite in2="hardAlpha" operator="arithmetic" k2="-1" k3="1"/>
<feColorMatrix type="matrix" values="0 0 0 0 0 0 0 0 0 0 0 0 0 0 0 0 0 0 0.3 0"/>
<feBlend mode="normal" in2="shape" result="effect1_innerShadow"/>
</filter>
<clipPath id="clip0">
<rect x="16" y="12" width="32" height="32" fill="white"/>
</clipPath>
</defs>
</svg>
