<svg width="71" height="71" viewBox="0 0 71 71" fill="none" xmlns="http://www.w3.org/2000/svg">
<g filter="url(#filter0_d)">
<circle cx="35.5" cy="31.5" r="25.5" fill="#C4C4C4"/>
<circle cx="35.5" cy="31.5" r="25.5" fill="white"/>
</g>
<g filter="url(#filter1_i)">
<path d="M46.9692 36.5637L41.542 35.2066L41.0801 33.3592C42.5322 31.9213 43.5267 29.9465 43.8213 27.9206C44.626 27.694 45.2493 27.004 45.357 26.1385L45.7111 23.3051C45.7862 22.7073 45.602 22.1024 45.2054 21.649C44.973 21.3827 44.6798 21.1815 44.3554 21.0583L44.4857 18.3907L45.0156 17.8594C45.8132 17.0108 46.4747 15.5559 45.0921 13.4451C44.0296 11.8231 42.2248 11 39.7258 11C38.7398 11 36.4703 11 34.3567 12.4195C28.3216 12.5456 27.5 15.3491 27.5 18.0833C27.5 18.7194 27.6544 20.1517 27.7564 21.0158C27.3923 21.1306 27.0622 21.3431 26.8044 21.6363C26.4006 22.0939 26.2136 22.7017 26.2887 23.3066L26.6429 26.1399C26.759 27.0636 27.4603 27.7903 28.3471 27.9632C28.6404 29.9111 29.5839 31.8222 30.9524 33.236L30.4594 35.2094L25.0321 36.5666C21.4791 37.4519 19 40.6281 19 44.2916C19 44.6826 19.3174 44.9999 19.7084 44.9999H52.2916C52.6826 44.9999 53 44.6798 53 44.2888C52.9999 40.6281 50.5208 37.4519 46.9692 36.5637Z" fill="white"/>
<path d="M19 44.5C19 47.0196 20.7911 49.4359 23.9792 51.2175C27.1673 52.9991 31.4913 54 36 54C40.5087 54 44.8327 52.9991 48.0208 51.2175C51.2089 49.4359 53 47.0196 53 44.5L36 44.5L19 44.5Z" fill="white"/>
</g>
<defs>
<filter id="filter0_d" x="0" y="0" width="71" height="71" filterUnits="userSpaceOnUse" color-interpolation-filters="sRGB">
<feFlood flood-opacity="0" result="BackgroundImageFix"/>
<feColorMatrix in="SourceAlpha" type="matrix" values="0 0 0 0 0 0 0 0 0 0 0 0 0 0 0 0 0 0 127 0"/>
<feOffset dy="4"/>
<feGaussianBlur stdDeviation="5"/>
<feColorMatrix type="matrix" values="0 0 0 0 0 0 0 0 0 0 0 0 0 0 0 0 0 0 0.3 0"/>
<feBlend mode="normal" in2="BackgroundImageFix" result="effect1_dropShadow"/>
<feBlend mode="normal" in="SourceGraphic" in2="effect1_dropShadow" result="shape"/>
</filter>
<filter id="filter1_i" x="19" y="11" width="34" height="45" filterUnits="userSpaceOnUse" color-interpolation-filters="sRGB">
<feFlood flood-opacity="0" result="BackgroundImageFix"/>
<feBlend mode="normal" in="SourceGraphic" in2="BackgroundImageFix" result="shape"/>
<feColorMatrix in="SourceAlpha" type="matrix" values="0 0 0 0 0 0 0 0 0 0 0 0 0 0 0 0 0 0 127 0" result="hardAlpha"/>
<feOffset dy="2"/>
<feGaussianBlur stdDeviation="2.5"/>
<feComposite in2="hardAlpha" operator="arithmetic" k2="-1" k3="1"/>
<feColorMatrix type="matrix" values="0 0 0 0 0 0 0 0 0 0 0 0 0 0 0 0 0 0 0.3 0"/>
<feBlend mode="normal" in2="shape" result="effect1_innerShadow"/>
</filter>
</defs>
</svg>
