<svg width="71" height="71" viewBox="0 0 71 71" fill="none" xmlns="http://www.w3.org/2000/svg">
<g filter="url(#filter0_d)">
<circle cx="35.5" cy="31.5" r="25.5" fill="#C4C4C4"/>
<circle cx="35.5" cy="31.5" r="25.5" fill="white"/>
</g>
<circle cx="35.5" cy="31.5" r="24" stroke="url(#paint0_linear)" stroke-width="3"/>
<g filter="url(#filter1_i)">
<path d="M47.0818 20L42.2891 27.245L37.3355 20H47.0818ZM41.5276 28.9019H30.8952L36.2109 49.1203L41.5276 28.9019ZM31.2501 27.7149H41.172L36.2108 20.4582L31.2501 27.7149ZM30.1339 27.245L35.0869 20H25.3411L30.1339 27.245ZM35.0844 49.5014L29.6685 28.9019H18L35.0844 49.5014ZM18.0166 27.7149H29.0217L24.2277 20.4682L18.0166 27.7149ZM48.1868 20.4813L43.4011 27.7149H54.3873L48.1868 20.4813ZM42.7542 28.9019L37.3378 49.4996L54.4038 28.9019H42.7542Z" fill="url(#paint1_linear)"/>
</g>
<defs>
<filter id="filter0_d" x="0" y="0" width="71" height="71" filterUnits="userSpaceOnUse" color-interpolation-filters="sRGB">
<feFlood flood-opacity="0" result="BackgroundImageFix"/>
<feColorMatrix in="SourceAlpha" type="matrix" values="0 0 0 0 0 0 0 0 0 0 0 0 0 0 0 0 0 0 127 0"/>
<feOffset dy="4"/>
<feGaussianBlur stdDeviation="5"/>
<feColorMatrix type="matrix" values="0 0 0 0 0 0 0 0 0 0 0 0 0 0 0 0 0 0 0.3 0"/>
<feBlend mode="normal" in2="BackgroundImageFix" result="effect1_dropShadow"/>
<feBlend mode="normal" in="SourceGraphic" in2="effect1_dropShadow" result="shape"/>
</filter>
<filter id="filter1_i" x="18" y="20" width="36.4038" height="31.5014" filterUnits="userSpaceOnUse" color-interpolation-filters="sRGB">
<feFlood flood-opacity="0" result="BackgroundImageFix"/>
<feBlend mode="normal" in="SourceGraphic" in2="BackgroundImageFix" result="shape"/>
<feColorMatrix in="SourceAlpha" type="matrix" values="0 0 0 0 0 0 0 0 0 0 0 0 0 0 0 0 0 0 127 0" result="hardAlpha"/>
<feOffset dy="2"/>
<feGaussianBlur stdDeviation="2.5"/>
<feComposite in2="hardAlpha" operator="arithmetic" k2="-1" k3="1"/>
<feColorMatrix type="matrix" values="0 0 0 0 0 0 0 0 0 0 0 0 0 0 0 0 0 0 0.3 0"/>
<feBlend mode="normal" in2="shape" result="effect1_innerShadow"/>
</filter>
<linearGradient id="paint0_linear" x1="35.5" y1="6" x2="35.5" y2="57" gradientUnits="userSpaceOnUse">
<stop stop-color="#09329E"/>
<stop offset="1" stop-color="#7A14B0"/>
</linearGradient>
<linearGradient id="paint1_linear" x1="36.2019" y1="20" x2="36.2019" y2="49.5014" gradientUnits="userSpaceOnUse">
<stop stop-color="#09329E"/>
<stop offset="1" stop-color="#7A14B0"/>
</linearGradient>
</defs>
</svg>
