<svg width="86" height="86" viewBox="0 0 86 86" fill="none" xmlns="http://www.w3.org/2000/svg">
<g filter="url(#filter0_d)">
<circle cx="42.9756" cy="38.9024" r="32.9024" fill="white"/>
</g>
<circle cx="42.9024" cy="38.9024" r="30.9024" stroke="url(#paint0_linear)" stroke-width="4"/>
<path d="M46.3154 25.7774V23.9586C46.3154 21.2244 44.1372 19 41.4598 19C38.7825 19 36.6043 21.2244 36.6043 23.9586V25.7774H28V31.1203C31.7892 31.957 34.6366 35.4067 34.6366 39.5228C34.6366 43.639 31.7892 47.0888 28 47.9255V55H44.3856C51.1291 55 56.6154 49.3973 56.6154 42.5107V25.7774H46.3154Z" fill="url(#paint1_linear)"/>
<defs>
<filter id="filter0_d" x="0.0731201" y="0" width="85.8049" height="85.8049" filterUnits="userSpaceOnUse" color-interpolation-filters="sRGB">
<feFlood flood-opacity="0" result="BackgroundImageFix"/>
<feColorMatrix in="SourceAlpha" type="matrix" values="0 0 0 0 0 0 0 0 0 0 0 0 0 0 0 0 0 0 127 0"/>
<feOffset dy="4"/>
<feGaussianBlur stdDeviation="5"/>
<feColorMatrix type="matrix" values="0 0 0 0 0 0 0 0 0 0 0 0 0 0 0 0 0 0 0.25 0"/>
<feBlend mode="normal" in2="BackgroundImageFix" result="effect1_dropShadow"/>
<feBlend mode="normal" in="SourceGraphic" in2="effect1_dropShadow" result="shape"/>
</filter>
<linearGradient id="paint0_linear" x1="42.9024" y1="6" x2="42.9024" y2="71.8049" gradientUnits="userSpaceOnUse">
<stop stop-color="#09329E"/>
<stop offset="0.841046" stop-color="#7A14B0"/>
</linearGradient>
<linearGradient id="paint1_linear" x1="42.3077" y1="19" x2="42.3077" y2="55" gradientUnits="userSpaceOnUse">
<stop stop-color="#09329E"/>
<stop offset="1" stop-color="#7A14B0"/>
</linearGradient>
</defs>
</svg>
