<svg width="44" height="42" viewBox="0 0 44 42" fill="none" xmlns="http://www.w3.org/2000/svg">
<path d="M33.9168 21C28.3568 21 23.8335 25.5233 23.8335 31.0833C23.8335 36.6433 28.3568 41.1666 33.9168 41.1666C39.4768 41.1666 44.0001 36.6433 44.0001 31.0833C44.0001 25.5233 39.4768 21 33.9168 21ZM37.5834 32H34.8334V34.75C34.8334 35.2567 34.4234 35.6667 33.9167 35.6667C33.41 35.6667 33.0001 35.2567 33.0001 34.75V32H30.2501C29.7434 32 29.3334 31.59 29.3334 31.0833C29.3334 30.5766 29.7434 30.1666 30.2501 30.1666H33.0001V27.4166C33.0001 26.9099 33.4101 26.4999 33.9168 26.4999C34.4235 26.4999 34.8335 26.9099 34.8335 27.4166V30.1666H37.5835C38.0902 30.1666 38.5002 30.5766 38.5002 31.0833C38.5001 31.59 38.0901 32 37.5834 32Z" fill="url(#paint0_linear)"/>
<path d="M22 31.0833C22 24.5127 27.346 19.1666 33.9167 19.1666C35.6838 19.1666 37.4016 19.5578 39.0228 20.3295C39.3084 20.4638 39.6414 20.444 39.9064 20.2766C40.1723 20.1083 40.3334 19.8155 40.3334 19.5014V8.16672C40.3334 6.14452 38.689 4.50002 36.6667 4.50002H19.6296L16.2314 1.10188C16.0596 0.930008 15.8269 0.833328 15.5833 0.833328H3.6667C1.64441 0.833328 0 2.47783 0 4.50002V30.1667C0 32.1889 1.64441 33.8334 3.6667 33.8334H21.2293C21.4952 33.8334 21.7476 33.7179 21.9222 33.5174C22.0959 33.3169 22.1747 33.0501 22.1371 32.787C22.0438 32.1352 22 31.5936 22 31.0833Z" fill="url(#paint1_linear)"/>
<defs>
<linearGradient id="paint0_linear" x1="33.9168" y1="21" x2="33.9168" y2="41.1666" gradientUnits="userSpaceOnUse">
<stop stop-color="#09329E"/>
<stop offset="1" stop-color="#7A14B0"/>
</linearGradient>
<linearGradient id="paint1_linear" x1="20.1667" y1="0.833328" x2="20.1667" y2="33.8334" gradientUnits="userSpaceOnUse">
<stop stop-color="#09329E"/>
<stop offset="1" stop-color="#7A14B0"/>
</linearGradient>
</defs>
</svg>
