<svg width="44" height="44" viewBox="0 0 44 44" fill="none" xmlns="http://www.w3.org/2000/svg">
<g filter="url(#filter0_i)">
<path d="M33.9168 22C28.3568 22 23.8335 26.5233 23.8335 32.0833C23.8335 37.6433 28.3568 42.1666 33.9168 42.1666C39.4768 42.1666 44.0001 37.6433 44.0001 32.0833C44.0001 26.5233 39.4768 22 33.9168 22ZM37.5834 33H34.8334V35.75C34.8334 36.2567 34.4234 36.6667 33.9167 36.6667C33.41 36.6667 33.0001 36.2567 33.0001 35.75V33H30.2501C29.7434 33 29.3334 32.59 29.3334 32.0833C29.3334 31.5766 29.7434 31.1666 30.2501 31.1666H33.0001V28.4166C33.0001 27.9099 33.4101 27.4999 33.9168 27.4999C34.4235 27.4999 34.8335 27.9099 34.8335 28.4166V31.1666H37.5835C38.0902 31.1666 38.5002 31.5766 38.5002 32.0833C38.5001 32.59 38.0901 33 37.5834 33Z" fill="white"/>
<path d="M22 32.0834C22 25.5128 27.346 20.1667 33.9167 20.1667C35.6838 20.1667 37.4016 20.5579 39.0228 21.3295C39.3084 21.4638 39.6414 21.4441 39.9064 21.2766C40.1723 21.1084 40.3334 20.8156 40.3334 20.5014V9.16676C40.3334 7.14457 38.689 5.50007 36.6667 5.50007H19.6296L16.2314 2.10193C16.0596 1.93005 15.8269 1.83337 15.5833 1.83337H3.6667C1.64441 1.83337 0 3.47787 0 5.50007V31.1668C0 33.189 1.64441 34.8335 3.6667 34.8335H21.2293C21.4952 34.8335 21.7476 34.718 21.9222 34.5175C22.0959 34.317 22.1747 34.0501 22.1371 33.787C22.0438 33.1353 22 32.5937 22 32.0834Z" fill="white"/>
</g>
<defs>
<filter id="filter0_i" x="0" y="0" width="44" height="46" filterUnits="userSpaceOnUse" color-interpolation-filters="sRGB">
<feFlood flood-opacity="0" result="BackgroundImageFix"/>
<feBlend mode="normal" in="SourceGraphic" in2="BackgroundImageFix" result="shape"/>
<feColorMatrix in="SourceAlpha" type="matrix" values="0 0 0 0 0 0 0 0 0 0 0 0 0 0 0 0 0 0 127 0" result="hardAlpha"/>
<feOffset dy="2"/>
<feGaussianBlur stdDeviation="2.5"/>
<feComposite in2="hardAlpha" operator="arithmetic" k2="-1" k3="1"/>
<feColorMatrix type="matrix" values="0 0 0 0 0 0 0 0 0 0 0 0 0 0 0 0 0 0 0.3 0"/>
<feBlend mode="normal" in2="shape" result="effect1_innerShadow"/>
</filter>
</defs>
</svg>
