<svg width="71" height="71" viewBox="0 0 71 71" fill="none" xmlns="http://www.w3.org/2000/svg">
<g filter="url(#filter0_d)">
<circle cx="35.5" cy="31.5" r="25.5" fill="#C4C4C4"/>
<circle cx="35.5" cy="31.5" r="25.5" fill="white"/>
</g>
<circle cx="35.5" cy="31.5" r="24" stroke="url(#paint0_linear)" stroke-width="3"/>
<g filter="url(#filter1_i)">
<g clip-path="url(#clip0)">
<path d="M36.3274 13.3619L40.7794 23.8991L52.1772 24.8782C52.9677 24.9465 53.2893 25.9329 52.6892 26.4521L44.0438 33.9422L46.6346 45.0849C46.8142 45.8592 45.9752 46.4683 45.2961 46.0568L35.5009 40.1495L25.7057 46.0568C25.0248 46.4665 24.1876 45.8574 24.3672 45.0849L26.958 33.9422L18.3108 26.4503C17.7108 25.9311 18.0306 24.9447 18.8229 24.8765L30.2206 23.8973L34.6727 13.3619C34.9817 12.6289 36.0183 12.6289 36.3274 13.3619Z" fill="url(#paint1_linear)"/>
</g>
</g>
<defs>
<filter id="filter0_d" x="0" y="0" width="71" height="71" filterUnits="userSpaceOnUse" color-interpolation-filters="sRGB">
<feFlood flood-opacity="0" result="BackgroundImageFix"/>
<feColorMatrix in="SourceAlpha" type="matrix" values="0 0 0 0 0 0 0 0 0 0 0 0 0 0 0 0 0 0 127 0"/>
<feOffset dy="4"/>
<feGaussianBlur stdDeviation="5"/>
<feColorMatrix type="matrix" values="0 0 0 0 0 0 0 0 0 0 0 0 0 0 0 0 0 0 0.3 0"/>
<feBlend mode="normal" in2="BackgroundImageFix" result="effect1_dropShadow"/>
<feBlend mode="normal" in="SourceGraphic" in2="effect1_dropShadow" result="shape"/>
</filter>
<filter id="filter1_i" x="18" y="12" width="35" height="37" filterUnits="userSpaceOnUse" color-interpolation-filters="sRGB">
<feFlood flood-opacity="0" result="BackgroundImageFix"/>
<feBlend mode="normal" in="SourceGraphic" in2="BackgroundImageFix" result="shape"/>
<feColorMatrix in="SourceAlpha" type="matrix" values="0 0 0 0 0 0 0 0 0 0 0 0 0 0 0 0 0 0 127 0" result="hardAlpha"/>
<feOffset dy="2"/>
<feGaussianBlur stdDeviation="2.5"/>
<feComposite in2="hardAlpha" operator="arithmetic" k2="-1" k3="1"/>
<feColorMatrix type="matrix" values="0 0 0 0 0 0 0 0 0 0 0 0 0 0 0 0 0 0 0.3 0"/>
<feBlend mode="normal" in2="shape" result="effect1_innerShadow"/>
</filter>
<linearGradient id="paint0_linear" x1="35.5" y1="6" x2="35.5" y2="57" gradientUnits="userSpaceOnUse">
<stop stop-color="#09329E"/>
<stop offset="1" stop-color="#7A14B0"/>
</linearGradient>
<linearGradient id="paint1_linear" x1="35.4998" y1="12.8121" x2="35.4998" y2="46.1893" gradientUnits="userSpaceOnUse">
<stop stop-color="#09329E"/>
<stop offset="1" stop-color="#7A14B0"/>
</linearGradient>
<clipPath id="clip0">
<rect x="18" y="12" width="35" height="35" fill="white"/>
</clipPath>
</defs>
</svg>
