<svg width="44" height="34" viewBox="0 0 44 34" fill="none" xmlns="http://www.w3.org/2000/svg">
<path d="M40.3332 9.66675H9.16665C7.46672 9.66675 6.01558 10.809 5.61099 12.4534C5.60918 12.4597 5.60652 12.4668 5.60471 12.4731L0.23809 30.5934C0.179911 30.7912 0.189708 31.0034 0.266708 31.195C0.82891 32.595 2.16275 33.5001 3.66665 33.5001H34.8333C36.4751 33.5001 37.9029 32.4133 38.3514 30.8405C38.3595 30.8208 38.3666 30.8011 38.3729 30.7805L43.8192 14.4667C43.8371 14.4148 43.8488 14.3611 43.8568 14.3074C43.9525 13.9681 43.9999 13.6485 43.9999 13.3334C43.9999 11.3112 42.3555 9.66675 40.3332 9.66675Z" fill="url(#paint0_linear)"/>
<path d="M0.785039 19.5262C0.829813 19.5334 0.873641 19.5361 0.917555 19.5361C1.31768 19.5361 1.67939 19.2738 1.79575 18.88L3.83857 11.9817C3.84123 11.9709 3.84398 11.9611 3.84665 11.9503C4.4733 9.52619 6.66024 7.83339 9.1667 7.83339H37.415C37.7132 7.83339 37.9925 7.68833 38.1643 7.44487C38.3353 7.20227 38.3783 6.89074 38.2789 6.60964C37.7596 5.1487 36.3749 4.1667 34.8333 4.1667H17.7962L14.3981 0.768555C14.2262 0.59668 13.9935 0.5 13.7499 0.5H3.6667C1.64441 0.5 0 2.14441 0 4.1667V18.6194C0 19.075 0.334813 19.4608 0.785039 19.5262Z" fill="url(#paint1_linear)"/>
<defs>
<linearGradient id="paint0_linear" x1="22.1003" y1="9.66675" x2="22.1003" y2="33.5001" gradientUnits="userSpaceOnUse">
<stop stop-color="#09329E"/>
<stop offset="1" stop-color="#7A14B0"/>
</linearGradient>
<linearGradient id="paint1_linear" x1="19.1658" y1="0.5" x2="19.1658" y2="19.5361" gradientUnits="userSpaceOnUse">
<stop stop-color="#09329E"/>
<stop offset="1" stop-color="#7A14B0"/>
</linearGradient>
</defs>
</svg>
