<svg width="44" height="42" viewBox="0 0 44 42" fill="none" xmlns="http://www.w3.org/2000/svg">
<path d="M39.4167 24.6666C39.9234 24.6666 40.3334 24.2566 40.3334 23.7499V8.16664C40.3334 6.14445 38.688 4.49995 36.6667 4.49995H19.6296L16.2314 1.10181C16.0596 0.929932 15.8269 0.833252 15.5833 0.833252H3.6667C1.64536 0.833252 0 2.47775 0 4.49995V30.1666C0 32.1888 1.64536 33.8333 3.6667 33.8333H22.9167C23.4234 33.8333 23.8334 33.4233 23.8334 32.9166V29.2499C23.8334 26.7229 25.8888 24.6666 28.4167 24.6666H39.4167Z" fill="url(#paint0_linear)"/>
<path d="M26.2431 27.6172C25.9459 28.012 26.0148 28.5706 26.3989 28.8812L34.2693 35.2504C34.4376 35.3865 34.6417 35.4545 34.8458 35.4545C35.0472 35.4545 35.2495 35.3883 35.416 35.2557L43.3195 28.9724C43.6929 28.6752 43.7761 28.1426 43.512 27.746C42.991 26.9655 42.146 26.5 41.2499 26.5H28.4166C27.5698 26.5 26.7775 26.9073 26.2431 27.6172Z" fill="url(#paint1_linear)"/>
<path d="M43.4821 31.8442C43.1688 31.6912 42.7892 31.7314 42.5135 31.9517L35.9205 37.1804C35.2607 37.5994 34.4774 37.6558 33.6655 37.1205L27.1602 31.855C26.8853 31.633 26.5057 31.5864 26.1889 31.7404C25.8702 31.8926 25.667 32.2139 25.667 32.5676V38.4167C25.667 39.9332 26.9005 41.1667 28.417 41.1667H41.2504C42.7669 41.1667 44.0004 39.9332 44.0004 38.4167V32.6697C44.0004 32.3178 43.799 31.9973 43.4821 31.8442Z" fill="url(#paint2_linear)"/>
<defs>
<linearGradient id="paint0_linear" x1="20.1667" y1="0.833252" x2="20.1667" y2="33.8333" gradientUnits="userSpaceOnUse">
<stop stop-color="#09329E"/>
<stop offset="1" stop-color="#7A14B0"/>
</linearGradient>
<linearGradient id="paint1_linear" x1="34.8623" y1="26.5" x2="34.8623" y2="35.4545" gradientUnits="userSpaceOnUse">
<stop stop-color="#09329E"/>
<stop offset="1" stop-color="#7A14B0"/>
</linearGradient>
<linearGradient id="paint2_linear" x1="34.8337" y1="31.6503" x2="34.8337" y2="41.1667" gradientUnits="userSpaceOnUse">
<stop stop-color="#09329E"/>
<stop offset="1" stop-color="#7A14B0"/>
</linearGradient>
</defs>
</svg>
