<svg width="71" height="71" viewBox="0 0 71 71" fill="none" xmlns="http://www.w3.org/2000/svg">
<g filter="url(#filter0_d)">
<circle cx="35.5" cy="31.5" r="25.5" fill="#C4C4C4"/>
<circle cx="35.5" cy="31.5" r="25.5" fill="white"/>
</g>
<g filter="url(#filter1_i)">
<g clip-path="url(#clip0)">
<path d="M36.3274 14.3619L40.7794 24.8991L52.1772 25.8782C52.9677 25.9465 53.2893 26.9329 52.6892 27.4521L44.0438 34.9422L46.6346 46.0849C46.8142 46.8592 45.9752 47.4683 45.2961 47.0568L35.5009 41.1495L25.7057 47.0568C25.0248 47.4665 24.1876 46.8574 24.3672 46.0849L26.958 34.9422L18.3108 27.4503C17.7108 26.9311 18.0306 25.9447 18.8229 25.8765L30.2206 24.8973L34.6727 14.3619C34.9817 13.6289 36.0183 13.6289 36.3274 14.3619Z" fill="white"/>
</g>
</g>
<defs>
<filter id="filter0_d" x="0" y="0" width="71" height="71" filterUnits="userSpaceOnUse" color-interpolation-filters="sRGB">
<feFlood flood-opacity="0" result="BackgroundImageFix"/>
<feColorMatrix in="SourceAlpha" type="matrix" values="0 0 0 0 0 0 0 0 0 0 0 0 0 0 0 0 0 0 127 0"/>
<feOffset dy="4"/>
<feGaussianBlur stdDeviation="5"/>
<feColorMatrix type="matrix" values="0 0 0 0 0 0 0 0 0 0 0 0 0 0 0 0 0 0 0.3 0"/>
<feBlend mode="normal" in2="BackgroundImageFix" result="effect1_dropShadow"/>
<feBlend mode="normal" in="SourceGraphic" in2="effect1_dropShadow" result="shape"/>
</filter>
<filter id="filter1_i" x="18" y="13" width="35" height="37" filterUnits="userSpaceOnUse" color-interpolation-filters="sRGB">
<feFlood flood-opacity="0" result="BackgroundImageFix"/>
<feBlend mode="normal" in="SourceGraphic" in2="BackgroundImageFix" result="shape"/>
<feColorMatrix in="SourceAlpha" type="matrix" values="0 0 0 0 0 0 0 0 0 0 0 0 0 0 0 0 0 0 127 0" result="hardAlpha"/>
<feOffset dy="2"/>
<feGaussianBlur stdDeviation="2.5"/>
<feComposite in2="hardAlpha" operator="arithmetic" k2="-1" k3="1"/>
<feColorMatrix type="matrix" values="0 0 0 0 0 0 0 0 0 0 0 0 0 0 0 0 0 0 0.3 0"/>
<feBlend mode="normal" in2="shape" result="effect1_innerShadow"/>
</filter>
<clipPath id="clip0">
<rect x="18" y="13" width="35" height="35" fill="white"/>
</clipPath>
</defs>
</svg>
