<svg width="78" height="78" viewBox="0 0 78 78" fill="none" xmlns="http://www.w3.org/2000/svg">
<g filter="url(#filter0_d)">
<circle cx="39" cy="37" r="29" fill="white"/>
</g>
<g filter="url(#filter1_i)">
<path d="M27.9482 54.2157C27.9899 55.213 28.8106 56 29.8086 56H47.1917C48.1897 56 49.0103 55.213 49.0521 54.2157L50.2935 28.0098H26.7068L27.9482 54.2157ZM42.4324 34.5189C42.4324 34.1013 42.771 33.7626 43.1887 33.7626H44.3984C44.8159 33.7626 45.1547 34.1012 45.1547 34.5189V49.4909C45.1547 49.9086 44.8162 50.2472 44.3984 50.2472H43.1887C42.7712 50.2472 42.4324 49.9088 42.4324 49.4909V34.5189ZM37.139 34.5189C37.139 34.1013 37.4776 33.7626 37.8953 33.7626H39.105C39.5225 33.7626 39.8612 34.1012 39.8612 34.5189V49.4909C39.8612 49.9086 39.5227 50.2472 39.105 50.2472H37.8953C37.4777 50.2472 37.139 49.9088 37.139 49.4909V34.5189ZM31.8455 34.5189C31.8455 34.1013 32.1841 33.7626 32.6018 33.7626H33.8115C34.2291 33.7626 34.5678 34.1012 34.5678 34.5189V49.4909C34.5678 49.9086 34.2292 50.2472 33.8115 50.2472H32.6018C32.1842 50.2472 31.8455 49.9088 31.8455 49.4909V34.5189Z" fill="white"/>
<path d="M51.12 20.9061H43.1005V19.3899C43.1005 19.1746 42.926 19 42.7106 19H34.2894C34.0741 19 33.8995 19.1746 33.8995 19.3899V20.906H25.88C25.2346 20.906 24.7115 21.4291 24.7115 22.0745V25.7454H52.2884V22.0746C52.2884 21.4292 51.7653 20.9061 51.12 20.9061Z" fill="white"/>
</g>
<defs>
<filter id="filter0_d" x="0" y="0" width="78" height="78" filterUnits="userSpaceOnUse" color-interpolation-filters="sRGB">
<feFlood flood-opacity="0" result="BackgroundImageFix"/>
<feColorMatrix in="SourceAlpha" type="matrix" values="0 0 0 0 0 0 0 0 0 0 0 0 0 0 0 0 0 0 127 0"/>
<feOffset dy="2"/>
<feGaussianBlur stdDeviation="5"/>
<feColorMatrix type="matrix" values="0 0 0 0 0 0 0 0 0 0 0 0 0 0 0 0 0 0 0.3 0"/>
<feBlend mode="normal" in2="BackgroundImageFix" result="effect1_dropShadow"/>
<feBlend mode="normal" in="SourceGraphic" in2="effect1_dropShadow" result="shape"/>
</filter>
<filter id="filter1_i" x="20" y="19" width="37" height="39" filterUnits="userSpaceOnUse" color-interpolation-filters="sRGB">
<feFlood flood-opacity="0" result="BackgroundImageFix"/>
<feBlend mode="normal" in="SourceGraphic" in2="BackgroundImageFix" result="shape"/>
<feColorMatrix in="SourceAlpha" type="matrix" values="0 0 0 0 0 0 0 0 0 0 0 0 0 0 0 0 0 0 127 0" result="hardAlpha"/>
<feOffset dy="2"/>
<feGaussianBlur stdDeviation="2.5"/>
<feComposite in2="hardAlpha" operator="arithmetic" k2="-1" k3="1"/>
<feColorMatrix type="matrix" values="0 0 0 0 0 0 0 0 0 0 0 0 0 0 0 0 0 0 0.3 0"/>
<feBlend mode="normal" in2="shape" result="effect1_innerShadow"/>
</filter>
</defs>
</svg>
