<svg width="40" height="40" viewBox="0 0 40 40" fill="none" xmlns="http://www.w3.org/2000/svg">
<path d="M20.0001 32.5806C21.0968 32.5806 21.9355 33.4194 21.9355 34.5161V38.0645C21.9355 39.1613 21.0968 40 20.0001 40C18.9033 40 18.0646 39.1613 18.0646 38.0645V34.5161C18.0646 33.4839 18.9033 32.5806 20.0001 32.5806Z" fill="#7A14B0" fill-opacity="0.2"/>
<path d="M20.0001 -7.62939e-06C21.0968 -7.62939e-06 21.9355 0.838701 21.9355 1.93547V5.48386C21.9355 6.58063 21.0968 7.41934 20.0001 7.41934C18.9033 7.41934 18.0646 6.58063 18.0646 5.48386V1.93547C18.0646 0.838701 18.9033 -7.62939e-06 20.0001 -7.62939e-06Z" fill="#7A14B0" fill-opacity="0.8"/>
<path d="M27.2904 30.6451C27.9355 30.6451 28.5807 30.9677 28.9678 31.6129L30.7097 34.6451C31.2259 35.5484 30.9033 36.7742 30.0001 37.2903C29.0968 37.8064 27.871 37.4838 27.3549 36.5806L25.613 33.5484C25.0968 32.6451 25.4194 31.4193 26.3226 30.9032C26.5807 30.7742 26.9678 30.6451 27.2904 30.6451Z" fill="#7A14B0" fill-opacity="0.15"/>
<path d="M10.9678 2.45158C11.6129 2.45158 12.2581 2.77417 12.6452 3.41933L14.3871 6.45159C14.9032 7.35482 14.5807 8.58063 13.6774 9.09676C12.7742 9.61289 11.5484 9.29031 11.0323 8.38708L9.29035 5.35482C8.77422 4.45159 9.0968 3.22578 10 2.70965C10.3226 2.5161 10.6452 2.45158 10.9678 2.45158Z" fill="#7A14B0" fill-opacity="0.7"/>
<path d="M32.5806 25.3548C32.9032 25.3548 33.2258 25.4194 33.5484 25.6129L36.5806 27.3548C37.4838 27.871 37.8064 29.0968 37.2903 30C36.7742 30.9032 35.5484 31.2258 34.6451 30.7097L31.6129 28.9677C30.7097 28.4516 30.3871 27.2258 30.9032 26.3226C31.2903 25.6774 31.9355 25.3548 32.5806 25.3548Z" fill="#7A14B0" fill-opacity="0.1"/>
<path d="M4.32264 9.03229C4.64522 9.03229 4.9678 9.09681 5.29038 9.29036L8.38714 11.0323C9.29037 11.5484 9.61295 12.7742 9.09682 13.6774C8.58069 14.5807 7.35489 14.9032 6.45166 14.3871L3.41941 12.6452C2.51619 12.129 2.19361 10.9032 2.70974 10C3.03232 9.35487 3.67748 9.03229 4.32264 9.03229Z" fill="#7A14B0" fill-opacity="0.6"/>
<path d="M34.5161 18.0645H38.0645C39.1613 18.0645 40 18.9032 40 20C40 21.0968 39.1613 21.9355 38.0645 21.9355H34.5161C33.4194 21.9355 32.5806 21.0968 32.5806 20C32.5806 18.9032 33.4839 18.0645 34.5161 18.0645Z" fill="#7A14B0" fill-opacity="0.05"/>
<path d="M1.93556 18.0645H5.48395C6.58072 18.0645 7.41943 18.9032 7.41943 20C7.41943 21.0968 6.58072 21.9355 5.48395 21.9355H1.93556C0.838786 21.9355 7.62939e-05 21.0968 7.62939e-05 20C7.62939e-05 18.9032 0.838786 18.0645 1.93556 18.0645Z" fill="#7A14B0" fill-opacity="0.5"/>
<path d="M35.6775 9.03229C36.3226 9.03229 36.9678 9.35487 37.3549 10C37.871 10.9032 37.5484 12.129 36.6452 12.6452L33.6129 14.3871C32.7097 14.9032 31.4839 14.5807 30.9678 13.6774C30.4516 12.7742 30.7742 11.5484 31.6775 11.0323L34.7097 9.29036C34.9678 9.09681 35.2904 9.03229 35.6775 9.03229Z" fill="#7A14B0"/>
<path d="M7.4194 25.3548C8.06456 25.3548 8.70972 25.6774 9.09682 26.3226C9.61295 27.2258 9.29037 28.4516 8.38714 28.9677L5.35489 30.7097C4.45167 31.2258 3.22587 30.9032 2.70974 30C2.19361 29.0968 2.51619 27.871 3.41941 27.3548L6.45166 25.6129C6.77424 25.4194 7.09682 25.3548 7.4194 25.3548Z" fill="#7A14B0" fill-opacity="0.4"/>
<path d="M29.0323 2.45158C29.3549 2.45158 29.6775 2.5161 30.0001 2.70965C30.9033 3.22578 31.2259 4.45159 30.7097 5.35482L28.9678 8.38708C28.4517 9.29031 27.2259 9.61289 26.3226 9.09676C25.4194 8.58063 25.0968 7.35482 25.613 6.45159L27.3549 3.41933C27.742 2.77417 28.3872 2.45158 29.0323 2.45158Z" fill="#7A14B0" fill-opacity="0.9"/>
<path d="M12.7097 30.6451C13.0323 30.6451 13.3548 30.7097 13.6774 30.9032C14.5807 31.4193 14.9032 32.6451 14.3871 33.5484L12.6452 36.5806C12.129 37.4838 10.9032 37.8064 10 37.2903C9.0968 36.7742 8.77422 35.5484 9.29035 34.6451L11.0323 31.6129C11.4194 31.0322 12.0645 30.6451 12.7097 30.6451Z" fill="#7A14B0" fill-opacity="0.3"/>
</svg>
