<svg width="34" height="43" viewBox="0 0 34 43" fill="none" xmlns="http://www.w3.org/2000/svg">
<path d="M27.9692 25.5637L22.542 24.2066L22.0801 22.3592C23.5322 20.9213 24.5267 18.9465 24.8213 16.9206C25.626 16.694 26.2493 16.004 26.357 15.1385L26.7111 12.3051C26.7862 11.7073 26.602 11.1024 26.2054 10.649C25.973 10.3827 25.6798 10.1815 25.3554 10.0583L25.4857 7.39067L26.0156 6.85942C26.8132 6.01082 27.4747 4.55592 26.0921 2.44507C25.0296 0.823104 23.2248 0 20.7258 0C19.7398 0 17.4703 0 15.3567 1.4195C9.32163 1.5456 8.49998 4.34914 8.49998 7.08334C8.49998 7.71945 8.65438 9.15169 8.75638 10.0158C8.39227 10.1306 8.06223 10.3431 7.80438 10.6363C7.40063 11.0939 7.21363 11.7017 7.28874 12.3066L7.64288 15.1399C7.75902 16.0636 8.46027 16.7903 9.34713 16.9632C9.64038 18.9111 10.5839 20.8222 11.9524 22.236L11.4594 24.2094L6.03213 25.5666C2.47914 26.4519 0 29.6281 0 33.2916C0 33.6826 0.317355 33.9999 0.708354 33.9999H33.2916C33.6826 33.9999 34 33.6798 34 33.2888C33.9999 29.6281 31.5208 26.4519 27.9692 25.5637Z" fill="black"/>
<path d="M8.30516e-07 33.5C6.1025e-07 36.0196 1.79107 38.4359 4.97919 40.2175C8.1673 41.9991 12.4913 43 17 43C21.5087 43 25.8327 41.9991 29.0208 40.2175C32.2089 38.4359 34 36.0196 34 33.5L8.30516e-07 33.5Z" fill="black"/>
</svg>
