<svg width="47" height="47" viewBox="0 0 47 47" fill="none" xmlns="http://www.w3.org/2000/svg">
<path d="M34.8734 17.5031C34.1416 20.3008 32.4341 20.917 31.5231 21.0407C30.9619 22.1627 29.7283 24.4557 28.4943 25.6078C28.001 26.0681 27.36 26.4567 26.5891 26.7627C25.605 27.1531 24.5656 27.3512 23.5001 27.3512C22.4347 27.3512 21.3953 27.1531 20.4111 26.7627C19.6405 26.4569 18.9993 26.0683 18.506 25.6078C17.2718 24.4559 16.0382 22.1627 15.477 21.0407C14.5661 20.917 12.8586 20.301 12.1269 17.5031C11.7356 16.007 11.8358 14.7874 12.4249 13.878C12.6853 13.4762 13.001 13.2024 13.2949 13.0171C13.2958 12.7184 13.3082 12.3445 13.3429 11.9192C12.8137 11.1838 12.0942 9.59713 12.9853 7.0289C13.9271 4.3138 16.0564 3.8945 17.0843 3.85816C17.4317 3.21223 18.0882 2.29516 19.2803 1.45205C20.6035 0.515626 22.3315 0 24.1456 0C26.378 0 28.6243 0.785695 30.6417 2.27215C33.9124 4.68213 33.6322 10.028 33.552 10.9987C33.6707 11.8123 33.7036 12.518 33.7051 13.0169C33.9991 13.2022 34.3147 13.4759 34.5751 13.8778C35.1643 14.7874 35.2645 16.0068 34.8734 17.5031ZM44.4389 38.3365V45.9249C44.4389 46.5186 43.9574 47 43.3638 47H3.63627C3.04259 47 2.56116 46.5186 2.56116 45.9249V38.3365C2.56116 35.2277 4.42627 32.4728 7.31274 31.3181L16.7125 27.5582C16.983 27.4503 17.2857 27.4561 17.5517 27.5757C17.8175 27.6948 18.0237 27.9169 18.1226 28.1908L20.4857 34.7239L20.9536 33.3787L20.2092 31.559C20.0737 31.2274 20.112 30.85 20.3118 30.5527C20.5115 30.2553 20.8461 30.0768 21.2043 30.0768H25.7959C26.1542 30.0768 26.4889 30.2553 26.6885 30.5527C26.8882 30.85 26.9265 31.2274 26.7911 31.559L26.0466 33.3787L26.5145 34.7239L28.8776 28.1908C28.9766 27.9169 29.1828 27.6948 29.4485 27.5757C29.7145 27.4563 30.0175 27.4505 30.2878 27.5582L39.6875 31.3181C42.574 32.4728 44.4389 35.2277 44.4389 38.3365ZM38.7158 39.1615C38.7158 38.5679 38.2344 38.0864 37.6407 38.0864H30.4224C29.8287 38.0864 29.3473 38.5679 29.3473 39.1615V42.5138C29.3473 43.1074 29.8287 43.5889 30.4224 43.5889H37.6407C38.2344 43.5889 38.7158 43.1074 38.7158 42.5138V39.1615Z" fill="black"/>
</svg>
