<svg width="36" height="42" viewBox="0 0 36 42" fill="none" xmlns="http://www.w3.org/2000/svg">
<path d="M6.12734 17.9419L11.1428 16.1699V4.79759H6.12734V17.9419Z" fill="black"/>
<path d="M19.8743 17.9419L24.8936 16.1699V4.79759H19.8743V17.9419Z" fill="black"/>
<path d="M0 41.3564H36V29.1096H0V41.3564ZM17.2413 30.9963H21.1029V37.1753H17.2413V30.9963ZM10.4156 30.9963H14.2791V37.1753H10.4156V30.9963ZM3.33727 30.9963H7.19694V37.1753H3.33727V30.9963Z" fill="black"/>
<path d="M27.4999 21.859L26.5144 16.8569L13.9997 21.859L12.5014 16.8569L0 21.859V27.1921H35.9981V21.859H27.4999Z" fill="black"/>
<path d="M3.85972 3.98244C4.48929 3.8638 4.97533 3.50979 5.35996 3.12325C5.7599 2.73096 6.06607 2.33868 6.52341 2.10331C6.95588 1.86029 7.50699 1.7914 7.86291 1.8622C8.20353 1.92152 8.42167 2.06887 8.67427 2.45732C8.91155 2.82856 9.08377 3.30121 9.29426 3.79682H9.39568C9.57556 3.26485 9.58321 2.69843 9.40142 2.12628C9.30574 1.84115 9.14118 1.54838 8.86562 1.31684C8.59581 1.07955 8.19587 0.966653 7.86483 1.00492C7.17594 1.08912 6.77218 1.5235 6.34354 1.82202C5.92064 2.12819 5.48243 2.46115 5.03848 2.66016C4.58114 2.85726 4.12571 2.99312 3.72769 3.018C3.32392 3.02757 3.0101 2.89745 2.69627 2.65825C2.04757 2.17603 1.52899 1.28622 0.983627 0.386841L0.882208 0.405977C0.813319 1.48523 1.07356 2.6372 2.00739 3.5117C2.48195 3.93651 3.2359 4.12978 3.85972 3.98244Z" fill="black"/>
<path d="M19.3959 4.07049C19.8705 3.97289 20.2073 3.69734 20.4732 3.39308C20.7316 3.10222 20.944 2.81327 21.2578 2.6621C21.5601 2.49944 21.9639 2.51093 22.161 2.58173C22.339 2.64679 22.4232 2.67167 22.6145 2.91469C22.7867 3.1424 22.936 3.45623 23.1408 3.79493H23.2441C23.4297 3.41987 23.4565 3.01228 23.3417 2.58364C23.2785 2.37123 23.1561 2.14543 22.9456 1.96364C22.7389 1.7742 22.4193 1.69 22.1648 1.72445C21.6386 1.80673 21.3745 2.16266 21.0798 2.3808C20.7871 2.61043 20.4732 2.81518 20.146 2.93574C19.8245 3.03524 19.5069 3.10413 19.2696 3.10605C19.0228 3.09265 18.8678 3.01037 18.6764 2.8745C18.2688 2.59704 17.8689 2.02105 17.3943 1.4221L17.2929 1.44315C17.1494 2.22006 17.2929 3.05821 17.9837 3.72796C18.3434 4.05135 18.929 4.19487 19.3959 4.07049Z" fill="black"/>
<path d="M6.12734 17.9419L11.1428 16.1699V4.79759H6.12734V17.9419Z" fill="black"/>
<path d="M19.8743 17.9419L24.8936 16.1699V4.79759H19.8743V17.9419Z" fill="black"/>
<path d="M0 41.3564H36V29.1096H0V41.3564ZM17.2413 30.9963H21.1029V37.1753H17.2413V30.9963ZM10.4156 30.9963H14.2791V37.1753H10.4156V30.9963ZM3.33727 30.9963H7.19694V37.1753H3.33727V30.9963Z" fill="black"/>
<path d="M27.4999 21.859L26.5144 16.8569L13.9997 21.859L12.5014 16.8569L0 21.859V27.1921H35.9981V21.859H27.4999Z" fill="black"/>
<path d="M3.85972 3.98244C4.48929 3.8638 4.97533 3.50979 5.35996 3.12325C5.7599 2.73096 6.06607 2.33868 6.52341 2.10331C6.95588 1.86029 7.50699 1.7914 7.86291 1.8622C8.20353 1.92152 8.42167 2.06887 8.67427 2.45732C8.91155 2.82856 9.08377 3.30121 9.29426 3.79682H9.39568C9.57556 3.26485 9.58321 2.69843 9.40142 2.12628C9.30574 1.84115 9.14118 1.54838 8.86562 1.31684C8.59581 1.07955 8.19587 0.966653 7.86483 1.00492C7.17594 1.08912 6.77218 1.5235 6.34354 1.82202C5.92064 2.12819 5.48243 2.46115 5.03848 2.66016C4.58114 2.85726 4.12571 2.99312 3.72769 3.018C3.32392 3.02757 3.0101 2.89745 2.69627 2.65825C2.04757 2.17603 1.52899 1.28622 0.983627 0.386841L0.882208 0.405977C0.813319 1.48523 1.07356 2.6372 2.00739 3.5117C2.48195 3.93651 3.2359 4.12978 3.85972 3.98244Z" fill="black"/>
<path d="M19.3959 4.07049C19.8705 3.97289 20.2073 3.69734 20.4732 3.39308C20.7316 3.10222 20.944 2.81327 21.2578 2.6621C21.5601 2.49944 21.9639 2.51093 22.161 2.58173C22.339 2.64679 22.4232 2.67167 22.6145 2.91469C22.7867 3.1424 22.936 3.45623 23.1408 3.79493H23.2441C23.4297 3.41987 23.4565 3.01228 23.3417 2.58364C23.2785 2.37123 23.1561 2.14543 22.9456 1.96364C22.7389 1.7742 22.4193 1.69 22.1648 1.72445C21.6386 1.80673 21.3745 2.16266 21.0798 2.3808C20.7871 2.61043 20.4732 2.81518 20.146 2.93574C19.8245 3.03524 19.5069 3.10413 19.2696 3.10605C19.0228 3.09265 18.8678 3.01037 18.6764 2.8745C18.2688 2.59704 17.8689 2.02105 17.3943 1.4221L17.2929 1.44315C17.1494 2.22006 17.2929 3.05821 17.9837 3.72796C18.3434 4.05135 18.929 4.19487 19.3959 4.07049Z" fill="black"/>
</svg>
