<svg width="43" height="43" viewBox="0 0 43 43" fill="none" xmlns="http://www.w3.org/2000/svg">
<path d="M5.01408 29.4718C5.01408 32.7748 7.69137 35.4636 10.9896 35.4825C9.67748 36.1288 8.77246 37.4796 8.77246 39.0385C8.77246 41.223 10.5494 43 12.7335 43C14.9177 43 16.6949 41.223 16.6949 39.0385C16.6949 37.4804 15.7903 36.13 14.4793 35.4834H29.7741C28.4631 36.13 27.5588 37.4804 27.5588 39.0385C27.5588 41.223 29.3359 43 31.5199 43C33.7041 43 35.481 41.223 35.481 39.0385C35.481 37.4804 34.5767 36.13 33.2657 35.4834H36.5298C37.334 35.4834 37.9858 34.8314 37.9858 34.0272C37.9858 33.2231 37.334 32.5711 36.5298 32.5711H11.0244C9.31611 32.5711 7.92606 31.1806 7.92606 29.4718V27.1048C8.83153 27.6516 9.8919 27.9669 11.0244 27.9669H31.52C34.69 27.9669 37.8551 25.5791 38.7255 22.5308L42.4847 9.37241C42.6103 8.93314 42.5224 8.46043 42.2472 8.09558C41.9721 7.73073 41.5413 7.51646 41.0847 7.51646H7.92606V6.01175C7.92606 2.69684 5.22981 0 1.91533 0C1.11122 0 0.459412 0.652094 0.459412 1.45621C0.459412 2.26032 1.11122 2.91227 1.91548 2.91227C3.62404 2.91227 5.01408 4.30275 5.01408 6.01189V29.4718Z" fill="black"/>
</svg>
