<svg width="40" height="40" viewBox="0 0 40 40" fill="none" xmlns="http://www.w3.org/2000/svg">
<path d="M6.85828 18.8281V20C6.85828 21.7616 8.29148 23.1948 10.0531 23.1948C11.8147 23.1948 13.2479 21.7616 13.2479 20V18.8281H18.8281V15.4669C16.3349 14.9278 14.4614 12.7052 14.4614 10.0531C14.4614 7.40109 16.3349 5.17836 18.8281 4.6393V0H8.04688C3.60984 0 0 3.60984 0 8.04688V18.8281H6.85828Z" fill="black"/>
<path d="M21.1719 6.85828H20C18.2384 6.85828 16.8052 8.29148 16.8052 10.0531C16.8052 11.8147 18.2384 13.2479 20 13.2479H21.1719V18.8281H24.6143C25.1534 16.3349 27.376 14.4614 30.0281 14.4614C32.6801 14.4614 34.9028 16.3349 35.4419 18.8281H40V8.04688C40 3.60984 36.3902 0 31.9531 0H21.1719V6.85828Z" fill="black"/>
<path d="M18.8281 33.2229H20C21.7616 33.2229 23.1948 31.7897 23.1948 30.028C23.1948 28.2665 21.7616 26.8333 20 26.8333H18.8281V21.1719H15.4669C14.9278 23.6651 12.7052 25.5386 10.0531 25.5386C7.40109 25.5386 5.17836 23.6651 4.6393 21.1719H0V31.9531C0 36.3902 3.60984 40 8.04688 40H18.8281V33.2229Z" fill="black"/>
</svg>
